<svg width="1735" height="1735" viewBox="0 0 1735 1735" fill="none" xmlns="http://www.w3.org/2000/svg">
<rect width="1734.84" height="1734.84" fill="#0A1744"/>
<path d="M849.562 305.204C909.907 305.204 958.826 354.123 958.826 414.468V1145.32H937.878C828.758 1145.32 740.299 1056.86 740.299 947.737V414.468C740.299 354.123 789.218 305.204 849.562 305.204Z" stroke="white" stroke-width="12.8507"/>
<path d="M958.178 440.136V1234.47C958.178 1341.81 871.157 1428.83 763.811 1428.83H759.795H561.413" stroke="white" stroke-width="12.8507"/>
<path d="M913.2 481.097V1228.04C913.2 1310.55 846.316 1377.43 763.811 1377.43H632.092" stroke="white" stroke-width="12.8507"/>
<circle cx="1141.73" cy="690.945" r="35.295" fill="white"/>
<path d="M740.52 784.694V942.517C740.52 1054.52 831.316 1145.32 943.319 1145.32C1055.32 1145.32 1146.12 1054.52 1146.12 942.517V784.694" stroke="white" stroke-width="12.8507"/>
<path d="M700.688 864.121V858.047C702.338 858.047 703.863 857.597 705.263 856.697C706.713 855.797 707.862 854.522 708.712 852.873C709.612 851.223 710.062 849.273 710.062 847.023C710.062 845.273 709.637 843.549 708.787 841.849C707.937 840.149 706.588 838.749 704.738 837.649C702.938 836.499 700.588 835.924 697.689 835.924H663.942V829.925H697.689C701.638 829.925 704.938 830.75 707.587 832.4C710.287 834.05 712.312 836.174 713.662 838.774C715.012 841.374 715.687 844.124 715.687 847.023C715.687 850.373 715.062 853.347 713.812 855.947C712.562 858.497 710.787 860.497 708.487 861.947C706.238 863.396 703.638 864.121 700.688 864.121ZM681.19 864.796C677.441 864.796 674.241 864.021 671.591 862.471C668.892 860.922 666.817 858.847 665.367 856.247C663.917 853.647 663.192 850.798 663.192 847.698C663.192 844.798 663.917 842.274 665.367 840.124C666.817 837.974 668.892 836.299 671.591 835.1C674.241 833.85 677.441 833.225 681.19 833.225C684.89 833.225 688.09 833.85 690.789 835.1C693.489 836.299 695.564 837.974 697.014 840.124C698.463 842.274 699.188 844.798 699.188 847.698C699.188 850.798 698.463 853.647 697.014 856.247C695.564 858.847 693.489 860.922 690.789 862.471C688.09 864.021 684.89 864.796 681.19 864.796ZM681.19 858.722C683.84 858.722 686.09 858.197 687.94 857.147C689.789 856.047 691.189 854.597 692.139 852.798C693.089 850.998 693.564 849.048 693.564 846.948C693.564 845.198 693.089 843.474 692.139 841.774C691.189 840.074 689.789 838.674 687.94 837.574C686.09 836.474 683.84 835.924 681.19 835.924C679.191 835.924 677.441 836.249 675.941 836.899C674.391 837.549 673.091 838.424 672.041 839.524C670.992 840.574 670.192 841.749 669.642 843.049C669.092 844.348 668.817 845.648 668.817 846.948C668.817 849.048 669.292 850.998 670.242 852.798C671.192 854.597 672.591 856.047 674.441 857.147C676.291 858.197 678.541 858.722 681.19 858.722ZM663.942 813.029H698.438V819.028H663.942V813.029ZM670.542 802.605C669.942 803.405 669.517 804.13 669.267 804.779C668.967 805.429 668.817 806.254 668.817 807.254C668.817 808.754 669.192 809.929 669.942 810.779C670.692 811.629 671.716 812.229 673.016 812.579C674.316 812.879 675.791 813.029 677.441 813.029V815.728C674.691 815.728 672.266 815.253 670.167 814.303C668.017 813.304 666.317 812.029 665.067 810.479C663.817 808.929 663.192 807.354 663.192 805.754C663.192 804.505 663.367 803.355 663.717 802.305C664.017 801.205 664.642 800.205 665.592 799.305L670.542 802.605ZM687.79 790.623C689.09 790.623 690.214 790.323 691.164 789.723C692.114 789.073 692.839 788.198 693.339 787.098C693.789 785.949 694.014 784.649 694.014 783.199C694.014 781.349 693.639 779.699 692.889 778.249C692.139 776.75 691.089 775.575 689.739 774.725C688.34 773.825 686.74 773.375 684.94 773.375L689.439 772.175C691.639 772.175 693.464 772.85 694.914 774.2C696.364 775.5 697.439 777.125 698.139 779.074C698.838 780.974 699.188 782.874 699.188 784.774C699.188 786.873 698.763 788.848 697.914 790.698C697.014 792.498 695.739 793.948 694.089 795.048C692.439 796.147 690.439 796.697 688.09 796.697C684.74 796.697 682.065 795.523 680.066 793.173C678.016 790.773 676.991 787.448 676.991 783.199C676.991 780.699 677.291 778.624 677.891 776.975C678.441 775.275 679.091 773.925 679.841 772.925C680.54 771.925 681.115 771.25 681.565 770.9H685.09C683.89 772.65 683.04 774.45 682.54 776.3C681.99 778.149 681.715 780.124 681.715 782.224C681.715 784.174 681.965 785.774 682.465 787.023C682.965 788.223 683.665 789.123 684.565 789.723C685.465 790.323 686.54 790.623 687.79 790.623ZM671.891 791.523L667.467 794.448C666.517 793.148 665.567 791.373 664.617 789.123C663.667 786.823 663.192 784.074 663.192 780.874C663.192 778.174 663.617 775.825 664.467 773.825C665.267 771.775 666.442 770.2 667.992 769.1C669.542 767.951 671.442 767.376 673.691 767.376H698.438V773.375H674.516C673.316 773.375 672.341 773.575 671.591 773.975C670.792 774.375 670.167 774.95 669.717 775.7C669.267 776.4 668.942 777.225 668.742 778.174C668.542 779.124 668.442 780.124 668.442 781.174C668.442 782.874 668.642 784.424 669.042 785.824C669.442 787.173 669.917 788.323 670.467 789.273C671.017 790.223 671.491 790.973 671.891 791.523ZM714.937 751.594V757.593H663.942V751.594H714.937ZM681.19 722.722C684.89 722.722 688.09 723.497 690.789 725.047C693.489 726.597 695.564 728.672 697.014 731.271C698.463 733.821 699.188 736.671 699.188 739.82C699.188 742.67 698.463 745.195 697.014 747.395C695.564 749.544 693.489 751.244 690.789 752.494C688.09 753.694 684.89 754.294 681.19 754.294C677.441 754.294 674.241 753.694 671.591 752.494C668.892 751.244 666.817 749.544 665.367 747.395C663.917 745.195 663.192 742.67 663.192 739.82C663.192 736.671 663.917 733.821 665.367 731.271C666.817 728.672 668.892 726.597 671.591 725.047C674.241 723.497 677.441 722.722 681.19 722.722ZM681.19 728.797C678.541 728.797 676.291 729.347 674.441 730.446C672.591 731.496 671.192 732.921 670.242 734.721C669.292 736.471 668.817 738.421 668.817 740.57C668.817 742.32 669.292 744.045 670.242 745.745C671.192 747.445 672.591 748.844 674.441 749.944C676.291 751.044 678.541 751.594 681.19 751.594C683.84 751.594 686.09 751.044 687.94 749.944C689.789 748.844 691.189 747.445 692.139 745.745C693.089 744.045 693.564 742.32 693.564 740.57C693.564 738.421 693.089 736.471 692.139 734.721C691.189 732.921 689.789 731.496 687.94 730.446C686.09 729.347 683.84 728.797 681.19 728.797ZM639.945 708.45H698.438V714.45H639.945V708.45ZM677.441 692.327C674.591 692.327 672.441 692.952 670.992 694.202C669.542 695.402 668.817 697.227 668.817 699.676C668.817 701.426 669.192 702.976 669.942 704.326C670.692 705.626 671.716 706.651 673.016 707.401C674.316 708.101 675.791 708.45 677.441 708.45V710.4C674.691 710.4 672.266 709.875 670.167 708.825C668.017 707.776 666.317 706.351 665.067 704.551C663.817 702.701 663.192 700.576 663.192 698.177C663.192 695.777 663.692 693.702 664.692 691.952C665.692 690.153 667.192 688.778 669.192 687.828C671.192 686.828 673.691 686.328 676.691 686.328H698.438V692.327H677.441ZM649.694 675.05C648.544 675.05 647.569 674.65 646.769 673.85C645.969 673 645.569 672.025 645.569 670.925C645.569 669.775 645.969 668.801 646.769 668.001C647.569 667.201 648.544 666.801 649.694 666.801C650.794 666.801 651.769 667.201 652.619 668.001C653.419 668.801 653.818 669.775 653.818 670.925C653.818 672.025 653.419 673 652.619 673.85C651.769 674.65 650.794 675.05 649.694 675.05ZM663.942 673.925V667.926H698.438V673.925H663.942ZM681.19 652.87C683.59 652.87 685.715 652.37 687.565 651.37C689.414 650.32 690.889 648.92 691.989 647.171C693.039 645.371 693.564 643.346 693.564 641.096C693.564 639.246 693.289 637.522 692.739 635.922C692.139 634.272 691.364 632.847 690.414 631.647C689.414 630.447 688.365 629.598 687.265 629.098H694.764C696.164 630.297 697.264 632.022 698.064 634.272C698.813 636.472 699.188 638.747 699.188 641.096C699.188 644.446 698.413 647.471 696.864 650.17C695.314 652.87 693.189 655.02 690.489 656.62C687.74 658.169 684.64 658.944 681.19 658.944C677.691 658.944 674.591 658.169 671.891 656.62C669.192 655.02 667.067 652.87 665.517 650.17C663.967 647.471 663.192 644.446 663.192 641.096C663.192 638.747 663.592 636.472 664.392 634.272C665.142 632.022 666.217 630.297 667.617 629.098H675.116C673.966 629.598 672.916 630.447 671.966 631.647C671.017 632.847 670.267 634.272 669.717 635.922C669.117 637.522 668.817 639.246 668.817 641.096C668.817 643.346 669.342 645.371 670.392 647.171C671.442 648.92 672.916 650.32 674.816 651.37C676.666 652.37 678.791 652.87 681.19 652.87ZM687.865 595.851C688.915 595.151 689.889 594.351 690.789 593.451C691.689 592.551 692.414 591.526 692.964 590.376C693.464 589.176 693.714 587.876 693.714 586.477C693.714 584.777 693.339 583.452 692.589 582.502C691.789 581.502 690.714 581.002 689.364 581.002C688.165 581.002 687.165 581.402 686.365 582.202C685.515 582.952 684.815 583.927 684.265 585.127C683.665 586.327 683.115 587.602 682.615 588.951C682.015 590.451 681.315 591.976 680.515 593.526C679.666 595.026 678.591 596.301 677.291 597.35C675.941 598.35 674.266 598.85 672.266 598.85C670.217 598.85 668.517 598.325 667.167 597.275C665.817 596.176 664.817 594.776 664.167 593.076C663.517 591.326 663.192 589.526 663.192 587.677C663.192 585.827 663.492 584.102 664.092 582.502C664.692 580.852 665.492 579.402 666.492 578.153C667.492 576.903 668.642 575.928 669.942 575.228L673.016 580.027C671.716 580.977 670.642 582.177 669.792 583.627C668.942 585.027 668.517 586.627 668.517 588.426C668.517 589.676 668.792 590.751 669.342 591.651C669.892 592.551 670.742 593.001 671.891 593.001C672.791 593.001 673.591 592.651 674.291 591.951C674.991 591.251 675.616 590.351 676.166 589.251C676.716 588.151 677.241 587.002 677.741 585.802C678.541 583.802 679.416 581.977 680.366 580.327C681.265 578.678 682.365 577.378 683.665 576.428C684.965 575.428 686.64 574.928 688.69 574.928C691.689 574.928 694.189 576.028 696.189 578.228C698.189 580.377 699.188 583.227 699.188 586.777C699.188 589.076 698.788 591.151 697.989 593.001C697.139 594.851 696.064 596.426 694.764 597.725C693.464 598.975 692.139 599.925 690.789 600.575L687.865 595.851ZM663.942 572.279V555.031H669.567V572.279H663.942ZM651.944 566.655V560.656H698.438V566.655H651.944ZM684.94 543.015C687.69 543.015 689.814 542.39 691.314 541.14C692.814 539.89 693.564 538.065 693.564 535.666C693.564 533.916 693.214 532.391 692.514 531.091C691.764 529.741 690.739 528.717 689.439 528.017C688.14 527.267 686.64 526.892 684.94 526.892H663.942V520.892H698.438V526.892H693.039C695.089 528.042 696.639 529.466 697.689 531.166C698.688 532.866 699.188 534.866 699.188 537.166C699.188 540.765 697.964 543.64 695.514 545.79C693.064 547.939 689.789 549.014 685.69 549.014H663.942V543.015H684.94ZM639.945 483.742V477.743H698.438V483.742H639.945ZM681.19 512.614C677.441 512.614 674.241 511.839 671.591 510.289C668.892 508.739 666.817 506.665 665.367 504.065C663.917 501.465 663.192 498.616 663.192 495.516C663.192 492.616 663.917 490.092 665.367 487.942C666.817 485.792 668.892 484.117 671.591 482.917C674.241 481.668 677.441 481.043 681.19 481.043C684.89 481.043 688.09 481.668 690.789 482.917C693.489 484.117 695.564 485.792 697.014 487.942C698.463 490.092 699.188 492.616 699.188 495.516C699.188 498.616 698.463 501.465 697.014 504.065C695.564 506.665 693.489 508.739 690.789 510.289C688.09 511.839 684.89 512.614 681.19 512.614ZM681.19 506.54C683.84 506.54 686.09 506.015 687.94 504.965C689.789 503.865 691.189 502.415 692.139 500.615C693.089 498.816 693.564 496.866 693.564 494.766C693.564 493.016 693.089 491.291 692.139 489.592C691.189 487.892 689.789 486.492 687.94 485.392C686.09 484.292 683.84 483.742 681.19 483.742C678.541 483.742 676.291 484.292 674.441 485.392C672.591 486.492 671.192 487.892 670.242 489.592C669.292 491.291 668.817 493.016 668.817 494.766C668.817 496.866 669.292 498.816 670.242 500.615C671.192 502.415 672.591 503.865 674.441 504.965C676.291 506.015 678.541 506.54 681.19 506.54ZM649.694 466.846C648.544 466.846 647.569 466.446 646.769 465.646C645.969 464.796 645.569 463.821 645.569 462.721C645.569 461.571 645.969 460.596 646.769 459.797C647.569 458.997 648.544 458.597 649.694 458.597C650.794 458.597 651.769 458.997 652.619 459.797C653.419 460.596 653.818 461.571 653.818 462.721C653.818 463.821 653.419 464.796 652.619 465.646C651.769 466.446 650.794 466.846 649.694 466.846ZM663.942 465.721V459.722H698.438V465.721H663.942ZM681.19 450.365C677.691 450.365 674.591 449.59 671.891 448.04C669.192 446.441 667.067 444.291 665.517 441.591C663.967 438.891 663.192 435.867 663.192 432.517C663.192 429.118 663.967 426.093 665.517 423.443C667.067 420.743 669.192 418.619 671.891 417.069C674.591 415.469 677.691 414.669 681.19 414.669C684.64 414.669 687.74 415.469 690.489 417.069C693.189 418.619 695.314 420.743 696.864 423.443C698.413 426.093 699.188 429.118 699.188 432.517C699.188 435.867 698.413 438.891 696.864 441.591C695.314 444.291 693.189 446.441 690.489 448.04C687.74 449.59 684.64 450.365 681.19 450.365ZM681.19 444.291C683.59 444.291 685.715 443.791 687.565 442.791C689.414 441.741 690.889 440.341 691.989 438.591C693.039 436.792 693.564 434.767 693.564 432.517C693.564 430.267 693.039 428.268 691.989 426.518C690.889 424.718 689.414 423.318 687.565 422.318C685.715 421.268 683.59 420.743 681.19 420.743C678.791 420.743 676.666 421.268 674.816 422.318C672.916 423.318 671.442 424.718 670.392 426.518C669.342 428.268 668.817 430.267 668.817 432.517C668.817 434.767 669.342 436.792 670.392 438.591C671.442 440.341 672.916 441.741 674.816 442.791C676.666 443.791 678.791 444.291 681.19 444.291Z" fill="white"/>
</svg>
