<svg width="1735" height="1735" viewBox="0 0 1735 1735" fill="none" xmlns="http://www.w3.org/2000/svg">
<rect width="1734.84" height="1734.84" fill="#0A1B25"/>
<path d="M820.415 837.47L690.272 525.86L505.138 940.118L800.252 943.784L910.232 1205.9H1100.86L846.077 582.683H1170.52C1298.83 584.659 1346.49 815.474 1181.52 837.47H994.55L1262.17 1205.9H1337.32L1108.2 903.458H1209.01C1416.14 844.804 1361.15 509.363 1170.52 525.86H756.26L1005.55 1141.75H954.224L840.578 874.13H602.288L690.272 681.665L756.26 837.47H820.415Z" fill="white"/>
<path d="M556.462 984.11H486.808L395.158 1209.57H466.645L556.462 984.11Z" fill="white"/>
<path d="M508.858 1418.44V1408.28H538.5V1418.44H508.858ZM508.858 1369.82V1359.66H538.5V1369.82H508.858ZM508.858 1392.24V1382.25H536.821V1392.24H508.858ZM501.133 1359.66H512.721V1418.44H501.133V1359.66ZM620.704 1359.66H632.292V1421.38L590.474 1381.99V1418.44H578.886V1356.72L620.704 1396.1V1359.66ZM667.735 1370.49V1359.66H711.401V1370.49H695.53V1418.44H683.522V1370.49H667.735ZM754.5 1418.44V1408.28H784.142V1418.44H754.5ZM754.5 1369.82V1359.66H784.142V1369.82H754.5ZM754.5 1392.24V1382.25H782.462V1392.24H754.5ZM746.774 1359.66H758.362V1418.44H746.774V1359.66ZM837.879 1391.06H850.558L869.704 1418.44H855.513L837.879 1391.06ZM824.527 1359.66H836.535V1418.44H824.527V1359.66ZM831.833 1369.9V1359.66H844.261C848.907 1359.66 852.854 1360.44 856.101 1362.01C859.348 1363.58 861.839 1365.76 863.574 1368.56C865.31 1371.36 866.177 1374.63 866.177 1378.38C866.177 1382.08 865.31 1385.35 863.574 1388.21C861.839 1391.01 859.348 1393.19 856.101 1394.76C852.854 1396.32 848.907 1397.11 844.261 1397.11H831.833V1387.54H843.505C845.632 1387.54 847.452 1387.2 848.963 1386.53C850.531 1385.8 851.734 1384.79 852.574 1383.51C853.414 1382.16 853.833 1380.57 853.833 1378.72C853.833 1376.87 853.414 1375.3 852.574 1374.02C851.734 1372.67 850.531 1371.67 848.963 1370.99C847.452 1370.27 845.632 1369.9 843.505 1369.9H831.833ZM905.15 1359.66H917.158V1418.44H905.15V1359.66ZM912.456 1369.82V1359.66H924.128C928.774 1359.66 932.721 1360.41 935.968 1361.92C939.271 1363.44 941.79 1365.59 943.525 1368.39C945.261 1371.19 946.129 1374.52 946.129 1378.38C946.129 1382.19 945.261 1385.52 943.525 1388.38C941.79 1391.17 939.271 1393.33 935.968 1394.84C932.721 1396.35 928.774 1397.11 924.128 1397.11H912.456V1386.95H924.128C927.319 1386.95 929.838 1386.22 931.685 1384.76C933.533 1383.31 934.456 1381.18 934.456 1378.38C934.456 1375.53 933.533 1373.4 931.685 1372C929.838 1370.55 927.319 1369.82 924.128 1369.82H912.456ZM997.321 1391.06H1010L1029.15 1418.44H1014.95L997.321 1391.06ZM983.969 1359.66H995.977V1418.44H983.969V1359.66ZM991.275 1369.9V1359.66H1003.7C1008.35 1359.66 1012.3 1360.44 1015.54 1362.01C1018.79 1363.58 1021.28 1365.76 1023.02 1368.56C1024.75 1371.36 1025.62 1374.63 1025.62 1378.38C1025.62 1382.08 1024.75 1385.35 1023.02 1388.21C1021.28 1391.01 1018.79 1393.19 1015.54 1394.76C1012.3 1396.32 1008.35 1397.11 1003.7 1397.11H991.275V1387.54H1002.95C1005.07 1387.54 1006.89 1387.2 1008.41 1386.53C1009.97 1385.8 1011.18 1384.79 1012.02 1383.51C1012.86 1382.16 1013.28 1380.57 1013.28 1378.72C1013.28 1376.87 1012.86 1375.3 1012.02 1374.02C1011.18 1372.67 1009.97 1371.67 1008.41 1370.99C1006.89 1370.27 1005.07 1369.9 1002.95 1369.9H991.275ZM1064.59 1359.66H1076.77V1418.44H1064.59V1359.66ZM1123.11 1398.7C1124.34 1400.89 1125.69 1402.79 1127.14 1404.41C1128.65 1406.04 1130.31 1407.3 1132.1 1408.19C1133.89 1409.09 1135.82 1409.54 1137.89 1409.54C1140.3 1409.54 1142.26 1408.92 1143.77 1407.69C1145.28 1406.46 1146.04 1404.78 1146.04 1402.65C1146.04 1400.8 1145.56 1399.32 1144.61 1398.2C1143.71 1397.08 1142.34 1396.1 1140.49 1395.26C1138.7 1394.37 1136.49 1393.41 1133.86 1392.41C1132.46 1391.9 1130.84 1391.23 1128.99 1390.39C1127.2 1389.5 1125.49 1388.38 1123.87 1387.03C1122.24 1385.63 1120.9 1383.95 1119.84 1381.99C1118.77 1379.98 1118.24 1377.57 1118.24 1374.77C1118.24 1371.41 1119.08 1368.53 1120.76 1366.12C1122.5 1363.66 1124.82 1361.78 1127.73 1360.5C1130.7 1359.15 1134 1358.48 1137.64 1358.48C1141.39 1358.48 1144.61 1359.13 1147.3 1360.41C1150.04 1361.64 1152.31 1363.24 1154.1 1365.2C1155.95 1367.1 1157.37 1369.09 1158.38 1371.16L1148.98 1376.37C1148.19 1374.97 1147.24 1373.71 1146.12 1372.59C1145.06 1371.41 1143.83 1370.49 1142.43 1369.82C1141.03 1369.09 1139.43 1368.73 1137.64 1368.73C1135.29 1368.73 1133.52 1369.29 1132.35 1370.41C1131.17 1371.47 1130.59 1372.73 1130.59 1374.18C1130.59 1375.64 1131.06 1376.93 1132.01 1378.05C1132.97 1379.11 1134.42 1380.15 1136.38 1381.15C1138.34 1382.11 1140.8 1383.09 1143.77 1384.09C1145.67 1384.76 1147.49 1385.6 1149.23 1386.61C1151.02 1387.62 1152.61 1388.85 1154.01 1390.31C1155.47 1391.71 1156.59 1393.39 1157.37 1395.35C1158.21 1397.25 1158.63 1399.46 1158.63 1401.98C1158.63 1404.83 1158.07 1407.38 1156.95 1409.62C1155.83 1411.86 1154.29 1413.76 1152.33 1415.33C1150.38 1416.84 1148.16 1417.99 1145.7 1418.77C1143.29 1419.61 1140.75 1420.03 1138.06 1420.03C1134.48 1420.03 1131.12 1419.36 1127.98 1418.02C1124.9 1416.62 1122.22 1414.74 1119.92 1412.39C1117.63 1410.04 1115.83 1407.49 1114.55 1404.75L1123.11 1398.7ZM1204.7 1418.44V1408.28H1234.34V1418.44H1204.7ZM1204.7 1369.82V1359.66H1234.34V1369.82H1204.7ZM1204.7 1392.24V1382.25H1232.66V1392.24H1204.7ZM1196.97 1359.66H1208.56V1418.44H1196.97V1359.66Z" fill="white"/>
</svg>
