<svg width="1735" height="1735" viewBox="0 0 1735 1735" fill="none" xmlns="http://www.w3.org/2000/svg">
<rect width="1734.84" height="1734.84" fill="#0A1744"/>
<path d="M409.615 790.972V775.71H429.965C462.769 763.075 476.768 738.064 476.768 715.68V394.16C474.733 353.461 438.599 334.824 409.615 330.059V291.395L580.55 289.36V328.024C584.001 352.17 618.196 391.107 632.441 392.125H643.633V296.482C640.581 279.186 624.699 263.141 607.004 262.906V242.557H1127.95V263.923C1110.04 264.737 1099.46 279.186 1096.41 286.308V395.177L1112.93 384.185L1129.45 370.736L1145.69 354.976L1155.42 339.216V289.36L1325.34 290.378V333.111C1299.9 329.041 1270.8 352.187 1262.25 380.932L1260.22 721.784C1264.4 754.519 1296.85 779.78 1325.34 775.71V790.972L1122.86 934.435V871.352L1156.44 843.881V416.544H1150.33L915.297 588.496V597.653L1096.41 723.819V954.785L872.564 1119.61H862.389L643.633 959.872V461.312L580.55 417.561V840.828C583.806 854.666 602.934 863.552 612.092 866.265V934.435L409.615 790.972Z" fill="white"/>
<path d="M744.363 968.012V285.291H989.573V474.54L869.512 561.025L780.992 496.924V563.06L991.608 715.68V970.047L865.442 1057.55L744.363 968.012Z" fill="#0A1744"/>
<path d="M597.739 1220.02V1350.32H571.604V1265.57L536.696 1350.32H516.908L481.813 1265.57V1350.32H455.679V1220.02H485.36L526.802 1316.9L568.244 1220.02H597.739ZM684.061 1351.62C671.865 1351.62 660.664 1348.76 650.459 1343.04C640.254 1337.31 632.165 1329.41 626.191 1319.33C620.218 1309.12 617.231 1297.61 617.231 1284.79C617.231 1272.1 620.218 1260.71 626.191 1250.63C632.165 1240.43 640.254 1232.46 650.459 1226.74C660.664 1221.01 671.865 1218.15 684.061 1218.15C696.382 1218.15 707.582 1221.01 717.663 1226.74C727.868 1232.46 735.895 1240.43 741.744 1250.63C747.717 1260.71 750.704 1272.1 750.704 1284.79C750.704 1297.61 747.717 1309.12 741.744 1319.33C735.895 1329.41 727.868 1337.31 717.663 1343.04C707.458 1348.76 696.257 1351.62 684.061 1351.62ZM684.061 1328.29C691.901 1328.29 698.808 1326.55 704.782 1323.06C710.756 1319.45 715.422 1314.35 718.783 1307.75C722.143 1301.16 723.823 1293.5 723.823 1284.79C723.823 1276.08 722.143 1268.49 718.783 1262.02C715.422 1255.42 710.756 1250.38 704.782 1246.9C698.808 1243.41 691.901 1241.67 684.061 1241.67C676.22 1241.67 669.251 1243.41 663.153 1246.9C657.179 1250.38 652.513 1255.42 649.152 1262.02C645.792 1268.49 644.112 1276.08 644.112 1284.79C644.112 1293.5 645.792 1301.16 649.152 1307.75C652.513 1314.35 657.179 1319.45 663.153 1323.06C669.251 1326.55 676.22 1328.29 684.061 1328.29ZM837.351 1350.32L808.603 1299.54H796.282V1350.32H770.148V1220.02H819.057C829.137 1220.02 837.725 1221.82 844.818 1225.43C851.912 1228.91 857.201 1233.71 860.686 1239.8C864.295 1245.78 866.099 1252.5 866.099 1259.97C866.099 1268.55 863.61 1276.33 858.632 1283.3C853.654 1290.14 846.249 1294.87 836.418 1297.49L867.593 1350.32H837.351ZM796.282 1279.94H818.124C825.217 1279.94 830.506 1278.26 833.991 1274.9C837.476 1271.41 839.218 1266.62 839.218 1260.53C839.218 1254.55 837.476 1249.95 833.991 1246.71C830.506 1243.35 825.217 1241.67 818.124 1241.67H796.282V1279.94ZM980.462 1259.22C977.475 1253.74 973.368 1249.57 968.141 1246.71C962.914 1243.85 956.816 1242.42 949.847 1242.42C942.131 1242.42 935.286 1244.16 929.313 1247.64C923.339 1251.13 918.672 1256.11 915.312 1262.58C911.952 1269.05 910.272 1276.52 910.272 1284.98C910.272 1293.69 911.952 1301.28 915.312 1307.75C918.797 1314.23 923.588 1319.2 929.686 1322.69C935.784 1326.17 942.878 1327.92 950.967 1327.92C960.923 1327.92 969.075 1325.3 975.422 1320.07C981.769 1314.72 985.938 1307.32 987.929 1297.86H943.127V1277.89H1013.69V1300.66C1011.95 1309.75 1008.21 1318.15 1002.49 1325.86C996.765 1333.58 989.36 1339.8 980.275 1344.53C971.315 1349.13 961.234 1351.44 950.034 1351.44C937.464 1351.44 926.077 1348.64 915.872 1343.04C905.791 1337.31 897.827 1329.41 891.977 1319.33C886.253 1309.25 883.39 1297.8 883.39 1284.98C883.39 1272.16 886.253 1260.71 891.977 1250.63C897.827 1240.43 905.791 1232.52 915.872 1226.92C926.077 1221.2 937.402 1218.34 949.847 1218.34C964.532 1218.34 977.288 1221.95 988.116 1229.16C998.943 1236.26 1006.41 1246.28 1010.52 1259.22H980.462ZM1112.92 1325.49H1061.03L1052.44 1350.32H1025L1071.85 1219.83H1102.28L1149.14 1350.32H1121.51L1112.92 1325.49ZM1105.83 1304.58L1086.98 1250.07L1068.12 1304.58H1105.83ZM1278.1 1350.32H1251.96L1192.79 1260.9V1350.32H1166.65V1219.83H1192.79L1251.96 1309.43V1219.83H1278.1V1350.32Z" fill="white"/>
<path d="M643.723 1431.33C645.737 1431.65 647.565 1432.47 649.208 1433.8C650.904 1435.12 652.229 1436.77 653.183 1438.73C654.19 1440.69 654.693 1442.78 654.693 1445.01C654.693 1447.82 653.978 1450.36 652.547 1452.64C651.116 1454.87 649.023 1456.64 646.267 1457.97C643.564 1459.24 640.357 1459.87 636.647 1459.87H615.978V1404.46H635.852C639.615 1404.46 642.822 1405.1 645.472 1406.37C648.122 1407.59 650.109 1409.26 651.434 1411.38C652.759 1413.5 653.421 1415.89 653.421 1418.53C653.421 1421.82 652.52 1424.55 650.719 1426.72C648.97 1428.84 646.638 1430.38 643.723 1431.33ZM623.212 1428.39H635.375C638.767 1428.39 641.391 1427.6 643.246 1426.01C645.101 1424.42 646.028 1422.22 646.028 1419.41C646.028 1416.6 645.101 1414.4 643.246 1412.81C641.391 1411.22 638.714 1410.43 635.216 1410.43H623.212V1428.39ZM636.011 1453.91C639.615 1453.91 642.424 1453.06 644.438 1451.37C646.452 1449.67 647.459 1447.31 647.459 1444.29C647.459 1441.22 646.399 1438.81 644.279 1437.06C642.159 1435.26 639.324 1434.36 635.773 1434.36H623.212V1453.91H636.011ZM750.352 1447.55H726.185L721.733 1459.87H714.101L734.135 1404.78H742.482L762.436 1459.87H754.804L750.352 1447.55ZM748.285 1441.67L738.268 1413.69L728.252 1441.67H748.285ZM831.268 1404.46V1459.87H824.033V1404.46H831.268ZM903.698 1453.99H923.096V1459.87H896.464V1404.46H903.698V1453.99ZM990.879 1410.35V1428.87H1011.07V1434.83H990.879V1453.91H1013.46V1459.87H983.645V1404.38H1013.46V1410.35H990.879ZM1116.06 1404.46L1098.02 1438.97V1459.87H1090.78V1438.97L1072.66 1404.46H1080.69L1094.36 1432.53L1108.04 1404.46H1116.06Z" fill="white"/>
</svg>
