<svg width="1080" height="1080" viewBox="0 0 1080 1080" fill="none" xmlns="http://www.w3.org/2000/svg">
<g clip-path="url(#clip0_33_182496)">
<rect width="1080" height="1080" fill="white"/>
<path d="M1082.94 668.079C1052.76 650.332 1029.18 625.862 1012.2 594.684C995.21 563.498 986.725 528.392 986.725 489.342C986.725 452.334 994.962 417.973 1011.44 386.283C1027.92 354.6 1050.87 329.369 1080.28 310.605C1109.68 291.849 1143.15 282.463 1180.68 282.463C1218.21 282.463 1253.56 291.088 1282.22 308.323C1310.86 325.565 1332.66 349.143 1347.63 379.063C1362.58 408.99 1370.07 442.707 1370.07 480.22C1370.07 487.331 1369.31 496.197 1367.78 506.841H1070.39C1073.43 542.847 1086.24 570.609 1108.8 590.127C1131.36 609.651 1157.6 619.41 1187.52 619.41C1211.35 619.41 1232.02 613.967 1249.52 603.06C1267.01 592.16 1281.08 577.332 1291.73 558.568L1362.47 592.036C1344.21 623.982 1320.37 649.081 1290.97 667.333C1261.56 685.585 1226.32 694.715 1185.25 694.715C1147.22 694.715 1113.11 685.834 1082.95 668.094L1082.94 668.079ZM1284.88 442.941C1283.85 429.246 1279.55 415.691 1271.94 402.245C1264.34 388.814 1252.8 377.526 1237.34 368.397C1221.86 359.267 1202.98 354.702 1180.67 354.702C1153.79 354.702 1131.1 362.691 1112.59 378.66C1094.08 394.63 1081.28 416.064 1074.18 442.933H1284.86L1284.88 442.941Z" stroke="#3C4043" stroke-width="4" stroke-miterlimit="10"/>
<path d="M655.475 -196H756.632L1000.03 200.275H1004.59L1000.03 95.3138V-196H1084.46V348.595H995.465L739.902 -68.2146H735.337L739.902 36.7467V348.595H655.475V-196Z" fill="#4285F4" stroke="#4285F4" stroke-width="4" stroke-miterlimit="10"/>
<path d="M654.179 762.888L520.315 571.979H617.668L703.616 698.235H705.899L788.044 571.979H888.44L753.054 762.888L889.962 959.885H791.087L704.377 829.064H702.095L617.668 959.885H518.793L654.179 762.888V762.888Z" stroke="#3C4043" stroke-width="4" stroke-miterlimit="10"/>
<path d="M894.181 672.425C864.005 654.678 840.427 630.208 823.448 599.03C806.455 567.844 797.969 532.738 797.969 493.688C797.969 456.679 806.206 422.319 822.688 390.629C839.162 358.946 862.11 333.715 891.525 314.951C920.926 296.194 954.394 286.809 991.922 286.809C1029.45 286.809 1064.81 295.433 1093.46 312.669C1122.1 329.911 1143.91 353.488 1158.87 383.408C1173.83 413.336 1181.31 447.052 1181.31 484.566C1181.31 491.676 1180.55 500.543 1179.03 511.186H881.635C884.678 547.193 897.48 574.955 920.048 594.472C942.601 613.997 968.842 623.756 998.769 623.756C1022.6 623.756 1043.26 618.313 1060.76 607.406C1078.25 596.506 1092.33 581.678 1102.98 562.914L1173.71 596.382C1155.46 628.328 1131.62 653.427 1102.22 671.679C1072.8 689.931 1037.56 699.06 996.494 699.06C958.461 699.06 924.357 690.18 894.196 672.44L894.181 672.425ZM1096.12 447.286C1095.1 433.592 1090.8 420.037 1083.19 406.591C1075.58 393.16 1064.04 381.872 1048.58 372.743C1033.11 363.613 1014.22 359.048 991.915 359.048C965.03 359.048 942.345 367.037 923.837 383.006C905.322 398.976 892.52 420.41 885.424 447.279H1096.11L1096.12 447.286Z" fill="#E94235" stroke="#E94235" stroke-width="4" stroke-miterlimit="10"/>
<path d="M967.152 1277.85C951.944 1272.17 939.507 1264.67 929.88 1255.36C908.073 1233.15 897.173 1202.92 897.173 1164.69V960.075H829.477V886.3H897.173V776.773H980.839V886.3H1075.16V960.075H980.839V1147.21C980.839 1168.53 984.892 1183.6 993.012 1192.44C1000.62 1202.84 1013.8 1208.03 1032.57 1208.03C1041.18 1208.03 1048.79 1206.89 1055.38 1204.61C1061.97 1202.32 1069.07 1198.65 1076.68 1193.58V1274.96C1059.95 1282.57 1039.66 1286.37 1015.83 1286.37C998.587 1286.37 982.361 1283.52 967.152 1277.85Z" fill="#34A853" stroke="#34A853" stroke-width="4" stroke-miterlimit="10"/>
<path d="M829.486 886.298H838.828L890.686 960.249L829.486 960.074V886.298ZM811.197 571.977H888.448L845.909 631.956C839.41 624.221 833.506 616.004 828.249 607.377C821.414 596.164 815.703 584.304 811.197 571.97V571.977ZM959.144 289.354C982.736 285.536 1018.35 283.509 1057.52 296.443C1067.47 299.727 1076.45 303.583 1084.46 307.628V348.602H995.465L959.144 289.362V289.354Z" fill="#3C4043" stroke="#3C4043" stroke-width="4" stroke-miterlimit="10"/>
<path d="M667.39 652.381C671.43 652.381 674.705 649.106 674.705 645.065C674.705 641.025 671.43 637.75 667.39 637.75C663.349 637.75 660.074 641.025 660.074 645.065C660.074 649.106 663.349 652.381 667.39 652.381Z" fill="#3C4043"/>
<path d="M211.526 1087.05C229.514 1067.78 241.818 1052.15 248.462 1040.16C255.094 1028.17 258.419 1013.82 258.419 997.122C258.419 980.423 251.995 965.864 239.147 953.438C226.299 941.023 208.952 934.807 187.113 934.807C166.979 934.807 150.598 940.7 137.97 952.472C125.336 964.256 117.091 977.844 113.24 993.265L49 966.927C53.2786 951.512 61.304 936.311 73.0885 921.318C74.4821 919.539 75.9368 917.797 77.4405 916.091M113.32 887.254C115.587 885.94 117.916 884.662 120.3 883.415C139.994 873.134 162.695 868 188.391 868C216.226 868 240.956 873.678 262.588 885.023C284.207 896.373 300.912 911.795 312.696 931.274C324.468 950.766 330.361 972.288 330.361 995.832C330.361 1021.11 323.827 1045.4 310.771 1068.74" stroke="#3C4043" stroke-width="3" stroke-miterlimit="10"/>
<path d="M117.47 894.291L106.136 891.351L109.075 880.011L117.47 894.291Z" fill="#3C4043"/>
<path d="M513.754 1087.05C531.743 1067.78 544.047 1052.15 550.691 1040.16C557.323 1028.17 560.648 1013.82 560.648 997.122C560.648 980.423 554.224 965.864 541.376 953.438C528.528 941.023 511.181 934.807 489.342 934.807C469.208 934.807 452.827 940.7 440.199 952.472C427.565 964.256 419.319 977.844 415.469 993.265L351.229 966.927C355.507 951.512 363.533 936.311 375.317 921.318C376.711 919.539 378.165 917.797 379.669 916.091M415.548 887.254C417.816 885.94 420.145 884.662 422.528 883.415C442.222 873.134 464.923 868 490.619 868C518.454 868 543.185 873.678 564.816 885.023C586.435 896.373 603.14 911.795 614.925 931.274C626.697 950.766 632.589 972.288 632.589 995.832C632.589 1021.11 626.055 1045.4 612.999 1068.74" stroke="#3C4043" stroke-width="3" stroke-miterlimit="10"/>
<path d="M419.698 894.291L408.364 891.351L411.304 880.011L419.698 894.291Z" fill="#3C4043"/>
<path d="M105.6 670.48L101.48 673.48L98.84 669.44L106.88 663.64H110.84V691H105.6V670.48ZM122.944 670.48L118.824 673.48L116.184 669.44L124.224 663.64H128.184V691H122.944V670.48ZM134.208 676.28H147.768V680.92H134.208V676.28ZM157.67 670.48L153.55 673.48L150.91 669.44L158.95 663.64H162.91V691H157.67V670.48ZM177.814 691.64C175.494 691.64 173.441 691.027 171.654 689.8C169.894 688.573 168.681 686.787 168.014 684.44L172.974 682.48C173.294 683.787 173.867 684.8 174.694 685.52C175.521 686.213 176.561 686.56 177.814 686.56C178.961 686.56 179.947 686.213 180.774 685.52C181.627 684.827 182.054 683.947 182.054 682.88C182.054 681.733 181.601 680.827 180.694 680.16C179.814 679.467 178.614 679.12 177.094 679.12H174.734V674.36H176.894C178.067 674.36 179.054 674.067 179.854 673.48C180.681 672.893 181.094 672.04 181.094 670.92C181.094 670.013 180.761 669.267 180.094 668.68C179.427 668.093 178.574 667.8 177.534 667.8C176.441 667.8 175.561 668.093 174.894 668.68C174.227 669.267 173.761 670 173.494 670.88L168.734 668.92C169.294 667.32 170.321 665.933 171.814 664.76C173.334 663.587 175.254 663 177.574 663C179.281 663 180.801 663.32 182.134 663.96C183.494 664.6 184.547 665.48 185.294 666.6C186.041 667.693 186.414 668.933 186.414 670.32C186.414 671.787 186.067 673.04 185.374 674.08C184.707 675.12 183.894 675.88 182.934 676.36V676.68C184.267 677.213 185.347 678.053 186.174 679.2C187.001 680.347 187.414 681.733 187.414 683.36C187.414 684.933 187.014 686.347 186.214 687.6C185.414 688.853 184.281 689.84 182.814 690.56C181.374 691.28 179.707 691.64 177.814 691.64ZM211.722 662.36H216.882L205.002 691H199.842L211.722 662.36ZM122.394 742.64C119.594 742.64 117.047 741.987 114.754 740.68C112.487 739.347 110.7 737.533 109.394 735.24C108.087 732.947 107.434 730.427 107.434 727.68C107.434 724.933 108.087 722.413 109.394 720.12C110.7 717.827 112.487 716.027 114.754 714.72C117.047 713.387 119.594 712.72 122.394 712.72C125.194 712.72 127.727 713.387 129.994 714.72C132.287 716.027 134.087 717.827 135.394 720.12C136.7 722.413 137.354 724.933 137.354 727.68C137.354 730.427 136.7 732.947 135.394 735.24C134.087 737.533 132.287 739.347 129.994 740.68C127.727 741.987 125.194 742.64 122.394 742.64ZM122.394 737.52C124.154 737.52 125.767 737.107 127.234 736.28C128.7 735.453 129.847 734.293 130.674 732.8C131.527 731.307 131.954 729.6 131.954 727.68C131.954 725.76 131.527 724.053 130.674 722.56C129.847 721.067 128.7 719.907 127.234 719.08C125.767 718.253 124.154 717.84 122.394 717.84C120.634 717.84 119.02 718.253 117.554 719.08C116.114 719.907 114.967 721.067 114.114 722.56C113.287 724.053 112.874 725.76 112.874 727.68C112.874 729.6 113.287 731.307 114.114 732.8C114.967 734.293 116.114 735.453 117.554 736.28C119.02 737.107 120.634 737.52 122.394 737.52ZM151.348 742.64C149.294 742.64 147.454 742.187 145.828 741.28C144.201 740.347 142.921 739.053 141.988 737.4C141.081 735.747 140.628 733.88 140.628 731.8C140.628 729.72 141.081 727.867 141.988 726.24C142.921 724.587 144.201 723.293 145.828 722.36C147.454 721.427 149.294 720.96 151.348 720.96C153.614 720.96 155.561 721.453 157.188 722.44C158.814 723.4 159.988 724.773 160.708 726.56L155.908 728.56C155.054 726.747 153.534 725.84 151.348 725.84C149.748 725.84 148.428 726.387 147.388 727.48C146.374 728.573 145.868 730.013 145.868 731.8C145.868 733.613 146.374 735.067 147.388 736.16C148.428 737.253 149.748 737.8 151.348 737.8C153.561 737.8 155.161 736.84 156.148 734.92L160.908 737C160.028 738.787 158.774 740.173 157.148 741.16C155.521 742.147 153.588 742.64 151.348 742.64ZM173.362 742.32C172.349 742.32 171.415 742.173 170.562 741.88C169.709 741.56 169.015 741.133 168.482 740.6C167.229 739.4 166.602 737.693 166.602 735.48V726.08H163.042V721.6H166.602V715.84H171.842V721.6H176.842V726.08H171.842V734.52C171.842 735.56 172.069 736.307 172.522 736.76C172.895 737.187 173.535 737.4 174.442 737.4C174.949 737.4 175.362 737.333 175.682 737.2C176.029 737.067 176.469 736.84 177.002 736.52V741.64C175.855 742.093 174.642 742.32 173.362 742.32ZM201.136 713.36H206.296L194.416 742H189.256L201.136 713.36ZM100.84 764.04H106.96L108.64 769.48H104.4L100.84 764.04ZM116.814 788.24C117.694 787.36 119.388 785.667 121.894 783.16C124.428 780.627 126.054 778.973 126.774 778.2C127.734 777.16 128.388 776.293 128.734 775.6C129.108 774.907 129.294 774.12 129.294 773.24C129.294 772.307 128.948 771.52 128.254 770.88C127.561 770.24 126.641 769.92 125.494 769.92C124.374 769.92 123.468 770.24 122.774 770.88C122.081 771.52 121.588 772.32 121.294 773.28L116.574 771.32C116.868 770.28 117.401 769.28 118.174 768.32C118.974 767.333 120.001 766.533 121.254 765.92C122.508 765.307 123.948 765 125.574 765C127.388 765 128.974 765.36 130.334 766.08C131.694 766.773 132.748 767.733 133.494 768.96C134.241 770.16 134.614 771.507 134.614 773C134.614 775.96 133.174 778.853 130.294 781.68C129.121 782.827 126.948 784.987 123.774 788.16L123.894 788.4H134.974V793H116.814V788.24ZM139.041 788.24C139.921 787.36 141.614 785.667 144.121 783.16C146.654 780.627 148.281 778.973 149.001 778.2C149.961 777.16 150.614 776.293 150.961 775.6C151.334 774.907 151.521 774.12 151.521 773.24C151.521 772.307 151.174 771.52 150.481 770.88C149.788 770.24 148.868 769.92 147.721 769.92C146.601 769.92 145.694 770.24 145.001 770.88C144.308 771.52 143.814 772.32 143.521 773.28L138.801 771.32C139.094 770.28 139.628 769.28 140.401 768.32C141.201 767.333 142.228 766.533 143.481 765.92C144.734 765.307 146.174 765 147.801 765C149.614 765 151.201 765.36 152.561 766.08C153.921 766.773 154.974 767.733 155.721 768.96C156.468 770.16 156.841 771.507 156.841 773C156.841 775.96 155.401 778.853 152.521 781.68C151.348 782.827 149.174 784.987 146.001 788.16L146.121 788.4H157.201V793H139.041V788.24Z" fill="#3C4043"/>
<path d="M109.485 485.66H98.485V478.62H127.91V485.66H116.91V518H109.485V485.66ZM141.87 518.88C138.973 518.88 136.388 518.238 134.115 516.955C131.841 515.635 130.063 513.857 128.78 511.62C127.533 509.347 126.91 506.798 126.91 503.975C126.91 501.188 127.533 498.658 128.78 496.385C130.063 494.112 131.841 492.333 134.115 491.05C136.388 489.73 138.973 489.07 141.87 489.07C144.73 489.07 147.296 489.73 149.57 491.05C151.843 492.333 153.603 494.112 154.85 496.385C156.133 498.658 156.775 501.188 156.775 503.975C156.775 506.798 156.133 509.347 154.85 511.62C153.603 513.857 151.843 515.635 149.57 516.955C147.296 518.238 144.73 518.88 141.87 518.88ZM141.87 512.225C143.263 512.225 144.546 511.895 145.72 511.235C146.893 510.575 147.828 509.622 148.525 508.375C149.221 507.128 149.57 505.662 149.57 503.975C149.57 502.325 149.221 500.877 148.525 499.63C147.828 498.383 146.893 497.43 145.72 496.77C144.546 496.11 143.263 495.78 141.87 495.78C140.476 495.78 139.193 496.11 138.02 496.77C136.846 497.43 135.893 498.383 135.16 499.63C134.463 500.877 134.115 502.325 134.115 503.975C134.115 505.625 134.463 507.092 135.16 508.375C135.893 509.622 136.846 510.575 138.02 511.235C139.193 511.895 140.476 512.225 141.87 512.225ZM174.333 518.88C171.803 518.88 169.493 518.257 167.403 517.01C165.349 515.727 163.718 513.967 162.508 511.73C161.334 509.457 160.748 506.872 160.748 503.975C160.748 501.115 161.334 498.548 162.508 496.275C163.718 494.002 165.349 492.242 167.403 490.995C169.493 489.712 171.803 489.07 174.333 489.07C176.239 489.07 177.926 489.492 179.393 490.335C180.859 491.142 181.978 492.15 182.748 493.36H183.188L182.748 489.4V478.62H189.898V518H183.188V514.645H182.748C182.014 515.855 180.896 516.863 179.393 517.67C177.926 518.477 176.239 518.88 174.333 518.88ZM175.543 512.225C176.899 512.225 178.164 511.877 179.338 511.18C180.511 510.483 181.446 509.512 182.143 508.265C182.839 507.018 183.188 505.588 183.188 503.975C183.188 502.362 182.839 500.932 182.143 499.685C181.446 498.438 180.511 497.485 179.338 496.825C178.164 496.128 176.899 495.78 175.543 495.78C174.223 495.78 172.976 496.128 171.803 496.825C170.629 497.485 169.694 498.438 168.998 499.685C168.301 500.932 167.953 502.362 167.953 503.975C167.953 505.588 168.301 507.018 168.998 508.265C169.694 509.512 170.629 510.483 171.803 511.18C172.976 511.877 174.223 512.225 175.543 512.225ZM205.296 518.88C202.326 518.88 199.888 518.018 197.981 516.295C196.075 514.535 195.121 512.243 195.121 509.42C195.121 507.55 195.616 505.9 196.606 504.47C197.596 503.04 198.953 501.94 200.676 501.17C202.4 500.4 204.306 500.015 206.396 500.015C209.293 500.015 211.768 500.437 213.821 501.28V500.07C213.821 498.53 213.235 497.283 212.061 496.33C210.925 495.377 209.385 494.9 207.441 494.9C206.121 494.9 204.838 495.212 203.591 495.835C202.381 496.422 201.373 497.21 200.566 498.2L195.946 494.57C197.303 492.81 199.008 491.453 201.061 490.5C203.115 489.547 205.351 489.07 207.771 489.07C212.061 489.07 215.325 490.06 217.561 492.04C219.798 494.02 220.916 496.917 220.916 500.73V518H213.821V515.14H213.381C212.538 516.24 211.42 517.138 210.026 517.835C208.67 518.532 207.093 518.88 205.296 518.88ZM207.001 513.27C209.091 513.27 210.741 512.61 211.951 511.29C213.198 509.933 213.821 508.357 213.821 506.56C211.951 505.68 209.99 505.24 207.936 505.24C204.196 505.24 202.326 506.633 202.326 509.42C202.326 510.557 202.73 511.492 203.536 512.225C204.343 512.922 205.498 513.27 207.001 513.27ZM235.754 516.68L223.929 489.95H232.124L239.384 507.385H239.824L246.809 489.95H254.839L237.514 529.88H229.759L235.754 516.68ZM254.279 522.895L257.579 517.89C256.736 517.56 256.021 517.01 255.434 516.24C254.884 515.47 254.609 514.572 254.609 513.545C254.609 512.225 255.067 511.107 255.984 510.19C256.937 509.273 258.074 508.815 259.394 508.815C260.714 508.815 261.832 509.273 262.749 510.19C263.702 511.107 264.179 512.225 264.179 513.545C264.179 514.205 264.069 514.792 263.849 515.305C263.629 515.818 263.262 516.46 262.749 517.23L257.524 525.04L254.279 522.895ZM283.674 489.95H290.439V493.47H290.879C291.759 492.113 292.933 491.05 294.399 490.28C295.903 489.473 297.571 489.07 299.404 489.07C301.384 489.07 303.108 489.547 304.574 490.5C306.041 491.417 307.086 492.59 307.709 494.02C308.626 492.553 309.873 491.362 311.449 490.445C313.063 489.528 314.951 489.07 317.114 489.07C320.304 489.07 322.724 490.06 324.374 492.04C326.061 493.983 326.904 496.623 326.904 499.96V518H319.754V501.28C319.754 499.52 319.333 498.163 318.489 497.21C317.683 496.257 316.546 495.78 315.079 495.78C313.209 495.78 311.706 496.532 310.569 498.035C309.469 499.502 308.919 501.445 308.919 503.865V518H301.714V501.28C301.714 499.52 301.274 498.163 300.394 497.21C299.551 496.257 298.341 495.78 296.764 495.78C295.004 495.78 293.574 496.532 292.474 498.035C291.411 499.502 290.879 501.445 290.879 503.865V518H283.674V489.95ZM346.932 518.88C344.145 518.88 341.633 518.238 339.397 516.955C337.16 515.672 335.4 513.912 334.117 511.675C332.87 509.402 332.247 506.853 332.247 504.03C332.247 501.353 332.87 498.878 334.117 496.605C335.363 494.295 337.087 492.462 339.287 491.105C341.487 489.748 343.943 489.07 346.657 489.07C349.553 489.07 352.047 489.693 354.137 490.94C356.227 492.187 357.803 493.892 358.867 496.055C359.967 498.218 360.517 500.62 360.517 503.26C360.517 504.103 360.462 504.91 360.352 505.68H339.287C339.653 507.917 340.533 509.622 341.927 510.795C343.357 511.932 345.062 512.5 347.042 512.5C348.692 512.5 350.103 512.152 351.277 511.455C352.487 510.722 353.44 509.75 354.137 508.54L359.967 511.4C357.107 516.387 352.762 518.88 346.932 518.88ZM353.587 500.565C353.513 499.685 353.183 498.823 352.597 497.98C352.047 497.1 351.258 496.385 350.232 495.835C349.242 495.248 348.068 494.955 346.712 494.955C344.988 494.955 343.503 495.468 342.257 496.495C341.047 497.485 340.167 498.842 339.617 500.565H353.587ZM379.48 518.88C376.694 518.88 374.182 518.238 371.945 516.955C369.709 515.672 367.949 513.912 366.665 511.675C365.419 509.402 364.795 506.853 364.795 504.03C364.795 501.353 365.419 498.878 366.665 496.605C367.912 494.295 369.635 492.462 371.835 491.105C374.035 489.748 376.492 489.07 379.205 489.07C382.102 489.07 384.595 489.693 386.685 490.94C388.775 492.187 390.352 493.892 391.415 496.055C392.515 498.218 393.065 500.62 393.065 503.26C393.065 504.103 393.01 504.91 392.9 505.68H371.835C372.202 507.917 373.082 509.622 374.475 510.795C375.905 511.932 377.61 512.5 379.59 512.5C381.24 512.5 382.652 512.152 383.825 511.455C385.035 510.722 385.989 509.75 386.685 508.54L392.515 511.4C389.655 516.387 385.31 518.88 379.48 518.88ZM386.135 500.565C386.062 499.685 385.732 498.823 385.145 497.98C384.595 497.1 383.807 496.385 382.78 495.835C381.79 495.248 380.617 494.955 379.26 494.955C377.537 494.955 376.052 495.468 374.805 496.495C373.595 497.485 372.715 498.842 372.165 500.565H386.135ZM410.02 518.44C408.627 518.44 407.343 518.238 406.17 517.835C404.997 517.395 404.043 516.808 403.31 516.075C401.587 514.425 400.725 512.078 400.725 509.035V496.11H395.83V489.95H400.725V482.03H407.93V489.95H414.805V496.11H407.93V507.715C407.93 509.145 408.242 510.172 408.865 510.795C409.378 511.382 410.258 511.675 411.505 511.675C412.202 511.675 412.77 511.583 413.21 511.4C413.687 511.217 414.292 510.905 415.025 510.465V517.505C413.448 518.128 411.78 518.44 410.02 518.44ZM112.73 588.44C111.337 588.44 110.053 588.238 108.88 587.835C107.707 587.395 106.753 586.808 106.02 586.075C104.297 584.425 103.435 582.078 103.435 579.035V566.11H98.54V559.95H103.435V552.03H110.64V559.95H117.515V566.11H110.64V577.715C110.64 579.145 110.952 580.172 111.575 580.795C112.088 581.382 112.968 581.675 114.215 581.675C114.912 581.675 115.48 581.583 115.92 581.4C116.397 581.217 117.002 580.905 117.735 580.465V587.505C116.158 588.128 114.49 588.44 112.73 588.44ZM135.961 588.88C133.065 588.88 130.48 588.238 128.206 586.955C125.933 585.635 124.155 583.857 122.871 581.62C121.625 579.347 121.001 576.798 121.001 573.975C121.001 571.188 121.625 568.658 122.871 566.385C124.155 564.112 125.933 562.333 128.206 561.05C130.48 559.73 133.065 559.07 135.961 559.07C138.821 559.07 141.388 559.73 143.661 561.05C145.935 562.333 147.695 564.112 148.941 566.385C150.225 568.658 150.866 571.188 150.866 573.975C150.866 576.798 150.225 579.347 148.941 581.62C147.695 583.857 145.935 585.635 143.661 586.955C141.388 588.238 138.821 588.88 135.961 588.88ZM135.961 582.225C137.355 582.225 138.638 581.895 139.811 581.235C140.985 580.575 141.92 579.622 142.616 578.375C143.313 577.128 143.661 575.662 143.661 573.975C143.661 572.325 143.313 570.877 142.616 569.63C141.92 568.383 140.985 567.43 139.811 566.77C138.638 566.11 137.355 565.78 135.961 565.78C134.568 565.78 133.285 566.11 132.111 566.77C130.938 567.43 129.985 568.383 129.251 569.63C128.555 570.877 128.206 572.325 128.206 573.975C128.206 575.625 128.555 577.092 129.251 578.375C129.985 579.622 130.938 580.575 132.111 581.235C133.285 581.895 134.568 582.225 135.961 582.225ZM155.842 559.95H162.607V563.47H163.047C163.927 562.113 165.101 561.05 166.567 560.28C168.071 559.473 169.739 559.07 171.572 559.07C173.552 559.07 175.276 559.547 176.742 560.5C178.209 561.417 179.254 562.59 179.877 564.02C180.794 562.553 182.041 561.362 183.617 560.445C185.231 559.528 187.119 559.07 189.282 559.07C192.472 559.07 194.892 560.06 196.542 562.04C198.229 563.983 199.072 566.623 199.072 569.96V588H191.922V571.28C191.922 569.52 191.501 568.163 190.657 567.21C189.851 566.257 188.714 565.78 187.247 565.78C185.377 565.78 183.874 566.532 182.737 568.035C181.637 569.502 181.087 571.445 181.087 573.865V588H173.882V571.28C173.882 569.52 173.442 568.163 172.562 567.21C171.719 566.257 170.509 565.78 168.932 565.78C167.172 565.78 165.742 566.532 164.642 568.035C163.579 569.502 163.047 571.445 163.047 573.865V588H155.842V559.95ZM219.375 588.88C216.478 588.88 213.893 588.238 211.62 586.955C209.346 585.635 207.568 583.857 206.285 581.62C205.038 579.347 204.415 576.798 204.415 573.975C204.415 571.188 205.038 568.658 206.285 566.385C207.568 564.112 209.346 562.333 211.62 561.05C213.893 559.73 216.478 559.07 219.375 559.07C222.235 559.07 224.801 559.73 227.075 561.05C229.348 562.333 231.108 564.112 232.355 566.385C233.638 568.658 234.28 571.188 234.28 573.975C234.28 576.798 233.638 579.347 232.355 581.62C231.108 583.857 229.348 585.635 227.075 586.955C224.801 588.238 222.235 588.88 219.375 588.88ZM219.375 582.225C220.768 582.225 222.051 581.895 223.225 581.235C224.398 580.575 225.333 579.622 226.03 578.375C226.726 577.128 227.075 575.662 227.075 573.975C227.075 572.325 226.726 570.877 226.03 569.63C225.333 568.383 224.398 567.43 223.225 566.77C222.051 566.11 220.768 565.78 219.375 565.78C217.981 565.78 216.698 566.11 215.525 566.77C214.351 567.43 213.398 568.383 212.665 569.63C211.968 570.877 211.62 572.325 211.62 573.975C211.62 575.625 211.968 577.092 212.665 578.375C213.398 579.622 214.351 580.575 215.525 581.235C216.698 581.895 217.981 582.225 219.375 582.225ZM239.255 559.95H246.02V563.69H246.46C247.157 562.37 248.239 561.288 249.705 560.445C251.172 559.565 252.785 559.125 254.545 559.125C255.829 559.125 257.002 559.327 258.065 559.73V566.935C257.075 566.568 256.232 566.312 255.535 566.165C254.875 565.982 254.16 565.89 253.39 565.89C251.264 565.89 249.577 566.66 248.33 568.2C247.084 569.74 246.46 571.683 246.46 574.03V588H239.255V559.95ZM262.727 559.95H269.492V563.69H269.932C270.629 562.37 271.71 561.288 273.177 560.445C274.644 559.565 276.257 559.125 278.017 559.125C279.3 559.125 280.474 559.327 281.537 559.73V566.935C280.547 566.568 279.704 566.312 279.007 566.165C278.347 565.982 277.632 565.89 276.862 565.89C274.735 565.89 273.049 566.66 271.802 568.2C270.555 569.74 269.932 571.683 269.932 574.03V588H262.727V559.95ZM297.954 588.88C295.057 588.88 292.472 588.238 290.199 586.955C287.925 585.635 286.147 583.857 284.864 581.62C283.617 579.347 282.994 576.798 282.994 573.975C282.994 571.188 283.617 568.658 284.864 566.385C286.147 564.112 287.925 562.333 290.199 561.05C292.472 559.73 295.057 559.07 297.954 559.07C300.814 559.07 303.38 559.73 305.654 561.05C307.927 562.333 309.687 564.112 310.934 566.385C312.217 568.658 312.859 571.188 312.859 573.975C312.859 576.798 312.217 579.347 310.934 581.62C309.687 583.857 307.927 585.635 305.654 586.955C303.38 588.238 300.814 588.88 297.954 588.88ZM297.954 582.225C299.347 582.225 300.63 581.895 301.804 581.235C302.977 580.575 303.912 579.622 304.609 578.375C305.305 577.128 305.654 575.662 305.654 573.975C305.654 572.325 305.305 570.877 304.609 569.63C303.912 568.383 302.977 567.43 301.804 566.77C300.63 566.11 299.347 565.78 297.954 565.78C296.56 565.78 295.277 566.11 294.104 566.77C292.93 567.43 291.977 568.383 291.244 569.63C290.547 570.877 290.199 572.325 290.199 573.975C290.199 575.625 290.547 577.092 291.244 578.375C291.977 579.622 292.93 580.575 294.104 581.235C295.277 581.895 296.56 582.225 297.954 582.225ZM314.699 559.95H322.784L327.624 578.155H328.009L333.619 559.95H340.989L346.599 578.155H346.984L351.824 559.95H359.799L350.834 588H343.079L337.359 569.85H336.974L331.309 588H323.609L314.699 559.95ZM366.33 588.33C365.01 588.33 363.873 587.872 362.92 586.955C362.003 586.002 361.545 584.865 361.545 583.545C361.545 582.225 362.003 581.107 362.92 580.19C363.873 579.273 365.01 578.815 366.33 578.815C367.65 578.815 368.768 579.273 369.685 580.19C370.638 581.107 371.115 582.225 371.115 583.545C371.115 584.865 370.638 586.002 369.685 586.955C368.768 587.872 367.65 588.33 366.33 588.33Z" fill="#3C4043"/>
<path d="M115.628 254.88C111.888 254.88 108.441 253.982 105.288 252.185C102.134 250.388 99.6227 247.932 97.7527 244.815C95.9193 241.662 95.0027 238.16 95.0027 234.31C95.0027 230.46 95.9193 226.977 97.7527 223.86C99.6227 220.707 102.134 218.232 105.288 216.435C108.441 214.638 111.888 213.74 115.628 213.74C118.598 213.74 121.366 214.272 123.933 215.335C126.499 216.398 128.644 217.883 130.368 219.79L126.078 224.08C124.794 222.65 123.254 221.55 121.458 220.78C119.698 220.01 117.736 219.625 115.573 219.625C113.043 219.625 110.678 220.23 108.478 221.44C106.278 222.65 104.518 224.373 103.198 226.61C101.878 228.847 101.218 231.413 101.218 234.31C101.218 237.207 101.878 239.773 103.198 242.01C104.518 244.247 106.278 245.97 108.478 247.18C110.678 248.39 113.061 248.995 115.628 248.995C117.974 248.995 119.936 248.647 121.513 247.95C123.089 247.253 124.501 246.318 125.748 245.145C126.554 244.338 127.233 243.33 127.783 242.12C128.369 240.91 128.754 239.59 128.938 238.16H115.573V232.66H134.768C134.951 233.687 135.043 234.75 135.043 235.85C135.043 238.343 134.658 240.745 133.888 243.055C133.118 245.328 131.889 247.308 130.203 248.995C126.499 252.918 121.641 254.88 115.628 254.88ZM220.63 266.76C217.183 266.76 214.323 265.972 212.05 264.395C209.813 262.818 208.31 260.948 207.54 258.785L213.205 256.42C213.792 257.887 214.727 259.06 216.01 259.94C217.33 260.857 218.87 261.315 220.63 261.315C223.197 261.315 225.195 260.545 226.625 259.005C228.092 257.502 228.825 255.375 228.825 252.625V250.04H228.495C227.578 251.36 226.35 252.405 224.81 253.175C223.307 253.908 221.565 254.275 219.585 254.275C217.238 254.275 215.057 253.67 213.04 252.46C211.023 251.25 209.41 249.545 208.2 247.345C207.027 245.108 206.44 242.56 206.44 239.7C206.44 236.84 207.027 234.31 208.2 232.11C209.41 229.873 211.023 228.15 213.04 226.94C215.057 225.693 217.238 225.07 219.585 225.07C221.528 225.07 223.27 225.455 224.81 226.225C226.35 226.995 227.578 228.04 228.495 229.36H228.825V225.95H234.6V252.46C234.6 255.503 234.013 258.088 232.84 260.215C231.667 262.378 230.017 264.01 227.89 265.11C225.8 266.21 223.38 266.76 220.63 266.76ZM220.685 248.775C222.152 248.775 223.508 248.427 224.755 247.73C226.002 246.997 226.992 245.952 227.725 244.595C228.458 243.202 228.825 241.57 228.825 239.7C228.825 236.84 228.037 234.622 226.46 233.045C224.92 231.432 222.995 230.625 220.685 230.625C219.182 230.625 217.807 230.992 216.56 231.725C215.313 232.422 214.323 233.448 213.59 234.805C212.857 236.162 212.49 237.793 212.49 239.7C212.49 241.607 212.857 243.238 213.59 244.595C214.323 245.952 215.313 246.997 216.56 247.73C217.807 248.427 219.182 248.775 220.685 248.775Z" fill="#4285F5"/>
<path d="M154.309 254.88C151.485 254.88 148.955 254.238 146.719 252.955C144.482 251.635 142.74 249.838 141.494 247.565C140.247 245.292 139.624 242.762 139.624 239.975C139.624 237.188 140.247 234.658 141.494 232.385C142.74 230.112 144.482 228.333 146.719 227.05C148.955 225.73 151.485 225.07 154.309 225.07C157.132 225.07 159.662 225.73 161.899 227.05C164.135 228.37 165.877 230.167 167.124 232.44C168.37 234.713 168.994 237.225 168.994 239.975C168.994 242.762 168.37 245.292 167.124 247.565C165.877 249.838 164.135 251.635 161.899 252.955C159.662 254.238 157.132 254.88 154.309 254.88ZM154.309 249.325C155.849 249.325 157.279 248.958 158.599 248.225C159.919 247.455 160.964 246.373 161.734 244.98C162.54 243.55 162.944 241.882 162.944 239.975C162.944 238.068 162.54 236.418 161.734 235.025C160.964 233.632 159.919 232.568 158.599 231.835C157.279 231.065 155.849 230.68 154.309 230.68C152.769 230.68 151.339 231.065 150.019 231.835C148.699 232.568 147.635 233.632 146.829 235.025C146.059 236.418 145.674 238.068 145.674 239.975C145.674 241.882 146.059 243.55 146.829 244.98C147.635 246.373 148.699 247.455 150.019 248.225C151.339 248.958 152.769 249.325 154.309 249.325ZM267.685 254.88C264.935 254.88 262.46 254.238 260.26 252.955C258.096 251.672 256.391 249.912 255.145 247.675C253.935 245.402 253.33 242.853 253.33 240.03C253.33 237.353 253.916 234.878 255.09 232.605C256.3 230.295 257.968 228.462 260.095 227.105C262.221 225.748 264.641 225.07 267.355 225.07C270.178 225.07 272.616 225.693 274.67 226.94C276.76 228.187 278.336 229.892 279.4 232.055C280.5 234.218 281.05 236.657 281.05 239.37C281.05 239.883 280.995 240.525 280.885 241.295H259.38C259.6 243.898 260.516 245.915 262.13 247.345C263.78 248.738 265.686 249.435 267.85 249.435C269.573 249.435 271.058 249.05 272.305 248.28C273.588 247.473 274.615 246.392 275.385 245.035L280.5 247.455C279.18 249.765 277.456 251.58 275.33 252.9C273.203 254.22 270.655 254.88 267.685 254.88ZM274.89 236.675C274.816 235.685 274.505 234.713 273.955 233.76C273.405 232.77 272.561 231.945 271.425 231.285C270.325 230.625 268.968 230.295 267.355 230.295C265.411 230.295 263.761 230.882 262.405 232.055C261.085 233.192 260.168 234.732 259.655 236.675H274.89Z" fill="#EA4335"/>
<path d="M187.717 254.88C184.893 254.88 182.363 254.238 180.127 252.955C177.89 251.635 176.148 249.838 174.902 247.565C173.655 245.292 173.032 242.762 173.032 239.975C173.032 237.188 173.655 234.658 174.902 232.385C176.148 230.112 177.89 228.333 180.127 227.05C182.363 225.73 184.893 225.07 187.717 225.07C190.54 225.07 193.07 225.73 195.307 227.05C197.543 228.37 199.285 230.167 200.532 232.44C201.778 234.713 202.402 237.225 202.402 239.975C202.402 242.762 201.778 245.292 200.532 247.565C199.285 249.838 197.543 251.635 195.307 252.955C193.07 254.238 190.54 254.88 187.717 254.88ZM187.717 249.325C189.257 249.325 190.687 248.958 192.007 248.225C193.327 247.455 194.372 246.373 195.142 244.98C195.948 243.55 196.352 241.882 196.352 239.975C196.352 238.068 195.948 236.418 195.142 235.025C194.372 233.632 193.327 232.568 192.007 231.835C190.687 231.065 189.257 230.68 187.717 230.68C186.177 230.68 184.747 231.065 183.427 231.835C182.107 232.568 181.043 233.632 180.237 235.025C179.467 236.418 179.082 238.068 179.082 239.975C179.082 241.882 179.467 243.55 180.237 244.98C181.043 246.373 182.107 247.455 183.427 248.225C184.747 248.958 186.177 249.325 187.717 249.325Z" fill="#F4B400"/>
<path d="M241.71 214.62H247.76V254H241.71V214.62Z" fill="#0F9D58"/>
<path d="M318.702 254.88C314.889 254.88 311.424 253.982 308.307 252.185C305.191 250.388 302.734 247.932 300.937 244.815C299.177 241.662 298.297 238.16 298.297 234.31C298.297 230.46 299.177 226.977 300.937 223.86C302.734 220.707 305.191 218.232 308.307 216.435C311.424 214.638 314.889 213.74 318.702 213.74C321.636 213.74 324.312 214.308 326.732 215.445C329.189 216.545 331.316 218.122 333.112 220.175L329.757 223.42C328.254 221.623 326.604 220.303 324.807 219.46C323.047 218.617 321.012 218.195 318.702 218.195C315.842 218.195 313.221 218.873 310.837 220.23C308.454 221.55 306.547 223.438 305.117 225.895C303.724 228.315 303.027 231.12 303.027 234.31C303.027 237.5 303.724 240.323 305.117 242.78C306.547 245.2 308.454 247.088 310.837 248.445C313.221 249.765 315.842 250.425 318.702 250.425C323.469 250.425 327.521 248.463 330.857 244.54L334.267 247.84C332.434 250.003 330.179 251.727 327.502 253.01C324.826 254.257 321.892 254.88 318.702 254.88ZM339.517 214.62H344.192V254H339.517V214.62ZM363.775 254.88C361.025 254.88 358.55 254.22 356.35 252.9C354.15 251.58 352.426 249.783 351.18 247.51C349.97 245.237 349.365 242.725 349.365 239.975C349.365 237.225 349.97 234.713 351.18 232.44C352.426 230.167 354.15 228.37 356.35 227.05C358.55 225.73 361.025 225.07 363.775 225.07C366.525 225.07 369 225.73 371.2 227.05C373.4 228.37 375.105 230.167 376.315 232.44C377.561 234.713 378.185 237.225 378.185 239.975C378.185 242.725 377.561 245.237 376.315 247.51C375.105 249.783 373.4 251.58 371.2 252.9C369 254.22 366.525 254.88 363.775 254.88ZM363.775 250.645C365.498 250.645 367.093 250.223 368.56 249.38C370.063 248.5 371.255 247.253 372.135 245.64C373.051 244.027 373.51 242.138 373.51 239.975C373.51 237.812 373.051 235.923 372.135 234.31C371.255 232.697 370.063 231.468 368.56 230.625C367.093 229.745 365.498 229.305 363.775 229.305C362.051 229.305 360.438 229.745 358.935 230.625C357.431 231.468 356.221 232.697 355.305 234.31C354.425 235.923 353.985 237.812 353.985 239.975C353.985 242.138 354.425 244.027 355.305 245.64C356.221 247.253 357.431 248.5 358.935 249.38C360.438 250.223 362.051 250.645 363.775 250.645ZM393.52 254.88C390.147 254.88 387.562 253.89 385.765 251.91C384.005 249.93 383.125 247.162 383.125 243.605V225.95H387.8V242.89C387.8 245.567 388.405 247.528 389.615 248.775C390.825 250.022 392.457 250.645 394.51 250.645C396.087 250.645 397.48 250.223 398.69 249.38C399.937 248.537 400.89 247.437 401.55 246.08C402.247 244.723 402.595 243.293 402.595 241.79V225.95H407.27V254H402.815V249.93H402.595C401.825 251.323 400.597 252.497 398.91 253.45C397.223 254.403 395.427 254.88 393.52 254.88ZM425.786 254.88C423.293 254.88 421.02 254.238 418.966 252.955C416.95 251.672 415.355 249.912 414.181 247.675C413.008 245.402 412.421 242.835 412.421 239.975C412.421 237.152 413.008 234.603 414.181 232.33C415.355 230.057 416.95 228.278 418.966 226.995C421.02 225.712 423.293 225.07 425.786 225.07C427.95 225.07 429.875 225.565 431.561 226.555C433.248 227.508 434.531 228.7 435.411 230.13H435.631L435.411 226.225V214.62H440.086V254H435.631V249.875H435.411C434.531 251.268 433.248 252.46 431.561 253.45C429.875 254.403 427.95 254.88 425.786 254.88ZM426.336 250.645C427.986 250.645 429.508 250.205 430.901 249.325C432.331 248.445 433.468 247.198 434.311 245.585C435.191 243.972 435.631 242.102 435.631 239.975C435.631 237.848 435.191 235.978 434.311 234.365C433.468 232.752 432.331 231.505 430.901 230.625C429.508 229.745 427.986 229.305 426.336 229.305C424.723 229.305 423.201 229.745 421.771 230.625C420.341 231.505 419.186 232.77 418.306 234.42C417.463 236.033 417.041 237.885 417.041 239.975C417.041 242.065 417.463 243.935 418.306 245.585C419.186 247.198 420.341 248.445 421.771 249.325C423.201 250.205 424.723 250.645 426.336 250.645Z" fill="#3C4043"/>
<path d="M97.7922 285.6H121.342L164.542 357.6H165.742L164.542 336.9V285.6H184.642V393H163.342L117.742 316.95H116.542L117.742 337.65V393H97.7922V285.6ZM242.27 395.4C234.67 395.4 227.82 393.65 221.72 390.15C215.62 386.65 210.82 381.85 207.32 375.75C203.92 369.55 202.22 362.6 202.22 354.9C202.22 347.6 203.92 340.85 207.32 334.65C210.72 328.35 215.42 323.35 221.42 319.65C227.42 315.95 234.12 314.1 241.52 314.1C249.42 314.1 256.22 315.8 261.92 319.2C267.62 322.6 271.92 327.25 274.82 333.15C277.82 339.05 279.32 345.6 279.32 352.8C279.32 355.1 279.17 357.3 278.87 359.4H221.42C222.42 365.5 224.82 370.15 228.62 373.35C232.52 376.45 237.17 378 242.57 378C247.07 378 250.92 377.05 254.12 375.15C257.42 373.15 260.02 370.5 261.92 367.2L277.82 375C270.02 388.6 258.17 395.4 242.27 395.4ZM260.42 345.45C260.22 343.05 259.32 340.7 257.72 338.4C256.22 336 254.07 334.05 251.27 332.55C248.57 330.95 245.37 330.15 241.67 330.15C236.97 330.15 232.92 331.55 229.52 334.35C226.22 337.05 223.82 340.75 222.32 345.45H260.42ZM311.893 354.15L285.493 316.5H308.743L323.293 338.4H324.193L337.843 316.5H361.843L334.993 354.15L361.843 393H338.593L323.893 370.65H322.993L308.593 393H285.343L311.893 354.15ZM406.713 394.2C402.913 394.2 399.413 393.65 396.213 392.55C393.013 391.35 390.413 389.75 388.413 387.75C383.713 383.25 381.363 376.85 381.363 368.55V333.3H368.013V316.5H381.363V294.9H401.013V316.5H419.763V333.3H401.013V364.95C401.013 368.85 401.863 371.65 403.563 373.35C404.963 374.95 407.363 375.75 410.763 375.75C412.663 375.75 414.213 375.5 415.413 375C416.713 374.5 418.363 373.65 420.363 372.45V391.65C416.063 393.35 411.513 394.2 406.713 394.2Z" fill="#3C4043"/>
<path d="M84.5048 93.056L103.119 81.7454C105.655 80.2043 106.494 76.8452 104.992 74.2425L104.992 74.2425C103.49 71.6399 100.217 70.7793 97.6808 72.3203L79.0668 83.6309C76.5307 85.1719 75.692 88.5311 77.1937 91.1338C78.6954 93.7364 81.9687 94.597 84.5048 93.056Z" fill="#F4B400"/>
<path d="M97.9327 81.5462L79.3186 70.2356C76.7825 68.6946 75.9439 65.3354 77.4456 62.7328L77.4456 62.7328C78.9472 60.1301 82.2205 59.2695 84.7566 60.8105L103.371 72.1211C105.907 73.6622 106.745 77.0213 105.244 79.624C103.742 82.2267 100.469 83.0873 97.9327 81.5462Z" fill="#0F9D58"/>
<path d="M47.2802 81.5462L65.8942 70.2356C68.4304 68.6946 69.269 65.3354 67.7673 62.7328L67.7673 62.7328C66.2657 60.1301 62.9924 59.2695 60.4562 60.8105L41.8422 72.1211C39.306 73.6622 38.4674 77.0213 39.9691 79.624C41.4708 82.2267 44.744 83.0873 47.2802 81.5462Z" fill="#EA4335"/>
<path d="M60.2061 93.056L41.5921 81.7454C39.0559 80.2043 38.2173 76.8452 39.719 74.2425L39.719 74.2425C41.2207 71.6399 44.4939 70.7793 47.0301 72.3203L65.6441 83.6309C68.1803 85.1719 69.0189 88.5311 67.5172 91.1338C66.0156 93.7364 62.7423 94.597 60.2061 93.056Z" fill="#4285F5"/>
<path d="M132.844 88.4033C130.588 88.4033 128.511 87.8417 126.612 86.7186C124.714 85.5954 123.206 84.0482 122.089 82.077C120.972 80.1058 120.414 77.9282 120.414 75.5444C120.414 73.1606 120.972 70.9831 122.089 69.0118C123.206 67.0406 124.714 65.4934 126.612 64.3703C128.511 63.2471 130.588 62.6855 132.844 62.6855C134.608 62.6855 136.261 63.0064 137.802 63.6482C139.366 64.29 140.65 65.1954 141.655 66.3644L139.611 68.4617C138.852 67.499 137.88 66.7655 136.697 66.2613C135.513 65.7341 134.24 65.4705 132.877 65.4705C131.18 65.4705 129.594 65.8945 128.12 66.7426C126.668 67.5678 125.495 68.7482 124.602 70.284C123.731 71.7968 123.295 73.5503 123.295 75.5444C123.295 77.5386 123.731 79.3035 124.602 80.8393C125.495 82.3521 126.679 83.5325 128.153 84.3806C129.627 85.2058 131.202 85.6184 132.877 85.6184C134.485 85.6184 135.826 85.3662 136.898 84.8619C137.992 84.3348 138.93 83.6471 139.712 82.799C140.293 82.1572 140.762 81.3894 141.119 80.4954C141.476 79.5786 141.7 78.57 141.789 77.4698H132.911V74.7536H144.436C144.548 75.3954 144.603 75.9914 144.603 76.5415C144.603 78.0543 144.369 79.5327 143.9 80.9768C143.431 82.3979 142.683 83.6471 141.655 84.7244C139.444 87.177 136.507 88.4033 132.844 88.4033ZM155.98 88.4033C154.305 88.4033 152.798 87.9907 151.457 87.1655C150.117 86.3404 149.068 85.2172 148.308 83.7961C147.571 82.375 147.202 80.8049 147.202 79.0858C147.202 77.3667 147.571 75.7966 148.308 74.3754C149.068 72.9543 150.117 71.8312 151.457 71.006C152.798 70.1808 154.305 69.7682 155.98 69.7682C157.656 69.7682 159.163 70.1808 160.503 71.006C161.843 71.8312 162.882 72.9543 163.619 74.3754C164.378 75.7966 164.758 77.3667 164.758 79.0858C164.758 80.8049 164.378 82.375 163.619 83.7961C162.882 85.2172 161.843 86.3404 160.503 87.1655C159.163 87.9907 157.656 88.4033 155.98 88.4033ZM155.98 85.7559C157.03 85.7559 158.002 85.4923 158.895 84.9651C159.811 84.415 160.537 83.6357 161.073 82.6271C161.631 81.6186 161.91 80.4381 161.91 79.0858C161.91 77.7334 161.631 76.553 161.073 75.5444C160.537 74.5359 159.811 73.768 158.895 73.2408C158.002 72.6907 157.03 72.4157 155.98 72.4157C154.931 72.4157 153.948 72.6907 153.032 73.2408C152.116 73.768 151.379 74.5359 150.821 75.5444C150.285 76.553 150.017 77.7334 150.017 79.0858C150.017 80.4381 150.285 81.6186 150.821 82.6271C151.379 83.6357 152.116 84.415 153.032 84.9651C153.948 85.4923 154.931 85.7559 155.98 85.7559ZM175.939 88.4033C174.263 88.4033 172.756 87.9907 171.416 87.1655C170.076 86.3404 169.026 85.2172 168.266 83.7961C167.529 82.375 167.161 80.8049 167.161 79.0858C167.161 77.3667 167.529 75.7966 168.266 74.3754C169.026 72.9543 170.076 71.8312 171.416 71.006C172.756 70.1808 174.263 69.7682 175.939 69.7682C177.614 69.7682 179.121 70.1808 180.462 71.006C181.802 71.8312 182.84 72.9543 183.577 74.3754C184.337 75.7966 184.716 77.3667 184.716 79.0858C184.716 80.8049 184.337 82.375 183.577 83.7961C182.84 85.2172 181.802 86.3404 180.462 87.1655C179.121 87.9907 177.614 88.4033 175.939 88.4033ZM175.939 85.7559C176.988 85.7559 177.96 85.4923 178.853 84.9651C179.769 84.415 180.495 83.6357 181.031 82.6271C181.589 81.6186 181.869 80.4381 181.869 79.0858C181.869 77.7334 181.589 76.553 181.031 75.5444C180.495 74.5359 179.769 73.768 178.853 73.2408C177.96 72.6907 176.988 72.4157 175.939 72.4157C174.889 72.4157 173.906 72.6907 172.99 73.2408C172.075 73.768 171.337 74.5359 170.779 75.5444C170.243 76.553 169.975 77.7334 169.975 79.0858C169.975 80.4381 170.243 81.6186 170.779 82.6271C171.337 83.6357 172.075 84.415 172.99 84.9651C173.906 85.4923 174.889 85.7559 175.939 85.7559ZM195.528 95.8298C193.518 95.8298 191.854 95.3485 190.536 94.3858C189.241 93.4231 188.37 92.2655 187.923 90.9132L190.503 89.7786C190.883 90.7871 191.508 91.6008 192.379 92.2197C193.272 92.8615 194.322 93.1824 195.528 93.1824C197.293 93.1824 198.655 92.6552 199.616 91.6008C200.598 90.5464 201.09 89.0566 201.09 87.1312V85.1714H200.956C200.397 86.0653 199.605 86.7988 198.577 87.3718C197.572 87.9219 196.422 88.197 195.126 88.197C193.652 88.197 192.301 87.8073 191.072 87.028C189.866 86.2487 188.906 85.1599 188.191 83.7617C187.476 82.3635 187.119 80.7705 187.119 78.9826C187.119 77.2177 187.476 75.6361 188.191 74.2379C188.906 72.8168 189.866 71.7166 191.072 70.9372C192.301 70.1579 193.652 69.7682 195.126 69.7682C196.422 69.7682 197.572 70.0548 198.577 70.6278C199.605 71.1779 200.397 71.9114 200.956 72.8282H201.09V70.3184H203.804V87.1655C203.804 89.9849 203.044 92.128 201.525 93.595C200.007 95.0849 198.008 95.8298 195.528 95.8298ZM195.528 85.5496C196.556 85.5496 197.483 85.286 198.309 84.7588C199.158 84.2316 199.828 83.4752 200.319 82.4896C200.833 81.504 201.09 80.335 201.09 78.9826C201.09 77.6073 200.833 76.4269 200.319 75.4413C199.828 74.4557 199.158 73.7107 198.309 73.2064C197.483 72.6793 196.556 72.4157 195.528 72.4157C194.501 72.4157 193.563 72.6793 192.714 73.2064C191.865 73.7336 191.184 74.49 190.67 75.4757C190.179 76.4613 189.933 77.6303 189.933 78.9826C189.933 80.335 190.179 81.5154 190.67 82.524C191.184 83.5096 191.865 84.266 192.714 84.7932C193.563 85.2975 194.501 85.5496 195.528 85.5496ZM208.014 63.2357H210.862V87.8532H208.014V63.2357ZM222.523 88.4033C220.892 88.4033 219.429 88.0022 218.134 87.1999C216.839 86.3977 215.822 85.2975 215.085 83.8993C214.371 82.4781 214.013 80.8851 214.013 79.1202C214.013 77.424 214.348 75.8653 215.018 74.4442C215.711 73.0231 216.682 71.8885 217.933 71.0404C219.184 70.1923 220.636 69.7682 222.288 69.7682C223.964 69.7682 225.415 70.1579 226.644 70.9372C227.872 71.6936 228.81 72.748 229.458 74.1004C230.128 75.4527 230.463 76.9999 230.463 78.742C230.463 79.0858 230.43 79.3837 230.363 79.6359H216.861C216.928 80.9653 217.241 82.0885 217.799 83.0053C218.357 83.9222 219.061 84.6098 219.91 85.0682C220.781 85.5267 221.685 85.7559 222.623 85.7559C224.812 85.7559 226.499 84.7015 227.682 82.5927L230.095 83.7961C229.358 85.2172 228.353 86.3404 227.079 87.1655C225.829 87.9907 224.31 88.4033 222.523 88.4033ZM227.448 77.2291C227.403 76.4957 227.202 75.7622 226.845 75.0287C226.488 74.2952 225.918 73.6763 225.136 73.1721C224.377 72.6678 223.416 72.4157 222.255 72.4157C220.915 72.4157 219.776 72.8626 218.838 73.7566C217.922 74.6276 217.319 75.7851 217.028 77.2291H227.448ZM242.152 63.2357H249.389C251.846 63.2357 253.99 63.7629 255.821 64.8172C257.653 65.8487 259.06 67.2927 260.043 69.1494C261.026 71.006 261.517 73.1377 261.517 75.5444C261.517 77.9512 261.026 80.0828 260.043 81.9395C259.06 83.7961 257.653 85.2516 255.821 86.306C253.99 87.3375 251.846 87.8532 249.389 87.8532H242.152V63.2357ZM249.389 85.0682C252.225 85.0682 254.47 84.2316 256.123 82.5584C257.798 80.8851 258.636 78.5471 258.636 75.5444C258.636 72.5417 257.798 70.2037 256.123 68.5305C254.47 66.8572 252.225 66.0206 249.389 66.0206H244.966V85.0682H249.389ZM272.254 88.4033C270.624 88.4033 269.161 88.0022 267.865 87.1999C266.57 86.3977 265.554 85.2975 264.817 83.8993C264.102 82.4781 263.745 80.8851 263.745 79.1202C263.745 77.424 264.08 75.8653 264.75 74.4442C265.442 73.0231 266.414 71.8885 267.664 71.0404C268.915 70.1923 270.367 69.7682 272.02 69.7682C273.695 69.7682 275.147 70.1579 276.375 70.9372C277.604 71.6936 278.542 72.748 279.19 74.1004C279.86 75.4527 280.195 76.9999 280.195 78.742C280.195 79.0858 280.161 79.3837 280.094 79.6359H266.592C266.659 80.9653 266.972 82.0885 267.53 83.0053C268.089 83.9222 268.792 84.6098 269.641 85.0682C270.512 85.5267 271.417 85.7559 272.355 85.7559C274.544 85.7559 276.23 84.7015 277.414 82.5927L279.826 83.7961C279.089 85.2172 278.084 86.3404 276.811 87.1655C275.56 87.9907 274.041 88.4033 272.254 88.4033ZM277.179 77.2291C277.135 76.4957 276.934 75.7622 276.576 75.0287C276.219 74.2952 275.649 73.6763 274.868 73.1721C274.108 72.6678 273.148 72.4157 271.986 72.4157C270.646 72.4157 269.507 72.8626 268.569 73.7566C267.653 74.6276 267.05 75.7851 266.76 77.2291H277.179ZM281.324 70.3184H284.373L289.666 84.415H289.733L295.094 70.3184H298.076L291.107 87.8532H288.226L281.324 70.3184ZM307.524 88.4033C305.894 88.4033 304.431 88.0022 303.135 87.1999C301.84 86.3977 300.824 85.2975 300.087 83.8993C299.372 82.4781 299.015 80.8851 299.015 79.1202C299.015 77.424 299.35 75.8653 300.02 74.4442C300.712 73.0231 301.684 71.8885 302.934 71.0404C304.185 70.1923 305.637 69.7682 307.29 69.7682C308.965 69.7682 310.417 70.1579 311.645 70.9372C312.874 71.6936 313.812 72.748 314.46 74.1004C315.13 75.4527 315.465 76.9999 315.465 78.742C315.465 79.0858 315.431 79.3837 315.364 79.6359H301.862C301.929 80.9653 302.242 82.0885 302.8 83.0053C303.359 83.9222 304.062 84.6098 304.911 85.0682C305.782 85.5267 306.687 85.7559 307.625 85.7559C309.814 85.7559 311.5 84.7015 312.684 82.5927L315.096 83.7961C314.359 85.2172 313.354 86.3404 312.081 87.1655C310.83 87.9907 309.311 88.4033 307.524 88.4033ZM312.449 77.2291C312.405 76.4957 312.204 75.7622 311.846 75.0287C311.489 74.2952 310.919 73.6763 310.138 73.1721C309.378 72.6678 308.418 72.4157 307.256 72.4157C305.916 72.4157 304.777 72.8626 303.839 73.7566C302.923 74.6276 302.32 75.7851 302.03 77.2291H312.449ZM318.797 63.2357H321.645V87.8532H318.797V63.2357ZM333.574 88.4033C331.899 88.4033 330.391 87.9907 329.051 87.1655C327.711 86.3404 326.661 85.2172 325.902 83.7961C325.165 82.375 324.796 80.8049 324.796 79.0858C324.796 77.3667 325.165 75.7966 325.902 74.3754C326.661 72.9543 327.711 71.8312 329.051 71.006C330.391 70.1808 331.899 69.7682 333.574 69.7682C335.249 69.7682 336.757 70.1808 338.097 71.006C339.437 71.8312 340.476 72.9543 341.213 74.3754C341.972 75.7966 342.352 77.3667 342.352 79.0858C342.352 80.8049 341.972 82.375 341.213 83.7961C340.476 85.2172 339.437 86.3404 338.097 87.1655C336.757 87.9907 335.249 88.4033 333.574 88.4033ZM333.574 85.7559C334.624 85.7559 335.596 85.4923 336.489 84.9651C337.405 84.415 338.131 83.6357 338.667 82.6271C339.225 81.6186 339.504 80.4381 339.504 79.0858C339.504 77.7334 339.225 76.553 338.667 75.5444C338.131 74.5359 337.405 73.768 336.489 73.2408C335.596 72.6907 334.624 72.4157 333.574 72.4157C332.524 72.4157 331.542 72.6907 330.626 73.2408C329.71 73.768 328.973 74.5359 328.415 75.5444C327.879 76.553 327.611 77.7334 327.611 79.0858C327.611 80.4381 327.879 81.6186 328.415 82.6271C328.973 83.6357 329.71 84.415 330.626 84.9651C331.542 85.4923 332.524 85.7559 333.574 85.7559ZM345.361 70.3184H348.075V72.9314H348.209C348.723 72.0375 349.493 71.2925 350.521 70.6966C351.571 70.0777 352.743 69.7682 354.039 69.7682C355.558 69.7682 356.942 70.1694 358.193 70.9716C359.444 71.7739 360.427 72.8855 361.141 74.3067C361.856 75.7278 362.214 77.3208 362.214 79.0858C362.214 80.8736 361.856 82.4781 361.141 83.8993C360.427 85.2975 359.444 86.3977 358.193 87.1999C356.942 88.0022 355.558 88.4033 354.039 88.4033C352.743 88.4033 351.571 88.1053 350.521 87.5094C349.493 86.8905 348.723 86.1455 348.209 85.2745H348.075L348.209 87.6813V95.2797H345.361V70.3184ZM353.704 85.7559C354.686 85.7559 355.613 85.4808 356.484 84.9307C357.356 84.3806 358.048 83.6013 358.562 82.5927C359.098 81.5613 359.366 80.3923 359.366 79.0858C359.366 77.7793 359.098 76.6217 358.562 75.6132C358.048 74.5817 357.356 73.7909 356.484 73.2408C355.613 72.6907 354.686 72.4157 353.704 72.4157C352.721 72.4157 351.794 72.6907 350.923 73.2408C350.052 73.7909 349.359 74.5703 348.846 75.5788C348.332 76.5873 348.075 77.7563 348.075 79.0858C348.075 80.4152 348.332 81.5842 348.846 82.5927C349.359 83.6013 350.052 84.3806 350.923 84.9307C351.794 85.4808 352.721 85.7559 353.704 85.7559ZM373.124 88.4033C371.493 88.4033 370.03 88.0022 368.735 87.1999C367.439 86.3977 366.423 85.2975 365.686 83.8993C364.971 82.4781 364.614 80.8851 364.614 79.1202C364.614 77.424 364.949 75.8653 365.619 74.4442C366.311 73.0231 367.283 71.8885 368.534 71.0404C369.785 70.1923 371.236 69.7682 372.889 69.7682C374.564 69.7682 376.016 70.1579 377.245 70.9372C378.473 71.6936 379.411 72.748 380.059 74.1004C380.729 75.4527 381.064 76.9999 381.064 78.742C381.064 79.0858 381.03 79.3837 380.963 79.6359H367.462C367.529 80.9653 367.841 82.0885 368.4 83.0053C368.958 83.9222 369.662 84.6098 370.51 85.0682C371.382 85.5267 372.286 85.7559 373.224 85.7559C375.413 85.7559 377.099 84.7015 378.283 82.5927L380.695 83.7961C379.958 85.2172 378.953 86.3404 377.68 87.1655C376.429 87.9907 374.911 88.4033 373.124 88.4033ZM378.049 77.2291C378.004 76.4957 377.803 75.7622 377.446 75.0287C377.088 74.2952 376.519 73.6763 375.737 73.1721C374.978 72.6678 374.017 72.4157 372.856 72.4157C371.516 72.4157 370.376 72.8626 369.438 73.7566C368.523 74.6276 367.919 75.7851 367.629 77.2291H378.049ZM384.396 70.3184H387.11V73.1377H387.244C387.579 72.175 388.227 71.3842 389.187 70.7653C390.148 70.1235 391.153 69.8026 392.203 69.8026C392.984 69.8026 393.654 69.9172 394.213 70.1464V73.3096C393.498 72.9429 392.694 72.7595 391.801 72.7595C390.974 72.7595 390.215 73.0002 389.522 73.4815C388.83 73.9629 388.272 74.6161 387.847 75.4413C387.445 76.2435 387.244 77.1145 387.244 78.0543V87.8532H384.396V70.3184ZM411.003 88.4033C409.127 88.4033 407.407 87.8188 405.844 86.6498C404.28 85.4808 403.208 83.842 402.627 81.7332L405.341 80.5986C405.721 82.0655 406.424 83.2689 407.452 84.2087C408.479 85.1485 409.685 85.6184 411.07 85.6184C412.455 85.6184 413.628 85.2402 414.588 84.4837C415.548 83.7044 416.029 82.65 416.029 81.3206C416.029 80.1745 415.615 79.2348 414.789 78.5013C413.985 77.7449 412.656 77.0458 410.802 76.404L409.294 75.8539C407.597 75.235 406.212 74.4213 405.14 73.4127C404.068 72.4042 403.532 71.006 403.532 69.2181C403.532 68.0491 403.845 66.9718 404.47 65.9862C405.095 64.9777 405.967 64.1754 407.083 63.5795C408.2 62.9835 409.451 62.6855 410.836 62.6855C412.22 62.6855 413.427 62.9491 414.454 63.4763C415.481 64.0035 416.297 64.6453 416.9 65.4017C417.525 66.1581 417.961 66.9031 418.206 67.6366L415.526 68.8055C415.303 67.9575 414.789 67.1896 413.985 66.502C413.203 65.8143 412.165 65.4705 410.869 65.4705C409.641 65.4705 408.591 65.8258 407.72 66.5363C406.849 67.2469 406.413 68.1408 406.413 69.2181C406.413 70.1808 406.782 70.9716 407.519 71.5905C408.256 72.1864 409.373 72.748 410.869 73.2752L412.444 73.8253C414.476 74.5817 416.062 75.533 417.201 76.679C418.34 77.8022 418.91 79.3379 418.91 81.2862C418.91 82.8678 418.508 84.1972 417.704 85.2745C416.922 86.3518 415.928 87.1426 414.722 87.6469C413.516 88.1512 412.276 88.4033 411.003 88.4033ZM428.229 88.1282C427.537 88.1282 426.889 88.0136 426.286 87.7844C425.705 87.5552 425.214 87.2458 424.812 86.8561C424.365 86.4206 424.03 85.9163 423.807 85.3433C423.583 84.7703 423.472 84.0712 423.472 83.246V72.9658H420.49V70.3184H423.472V65.3673H426.319V70.3184H430.474V72.9658H426.319V82.524C426.319 83.4867 426.498 84.1972 426.855 84.6557C427.28 85.1599 427.894 85.4121 428.698 85.4121C429.346 85.4121 429.971 85.2172 430.574 84.8276V87.6813C430.239 87.8417 429.893 87.9563 429.536 88.0251C429.201 88.0939 428.765 88.1282 428.229 88.1282ZM440.13 88.4033C438.075 88.4033 436.501 87.7844 435.406 86.5467C434.334 85.3089 433.798 83.5784 433.798 81.355V70.3184H436.646V80.908C436.646 82.5813 437.014 83.8076 437.751 84.5869C438.488 85.3662 439.482 85.7559 440.733 85.7559C441.694 85.7559 442.542 85.4923 443.279 84.9651C444.039 84.4379 444.62 83.7503 445.022 82.9022C445.446 82.0541 445.658 81.1602 445.658 80.2204V70.3184H448.506V87.8532H445.792V85.3089H445.658C445.189 86.1799 444.441 86.9134 443.413 87.5094C442.386 88.1053 441.292 88.4033 440.13 88.4033ZM459.785 88.4033C458.267 88.4033 456.882 88.0022 455.631 87.1999C454.402 86.3977 453.431 85.2975 452.716 83.8993C452.001 82.4781 451.644 80.8736 451.644 79.0858C451.644 77.3208 452.001 75.7278 452.716 74.3067C453.431 72.8855 454.402 71.7739 455.631 70.9716C456.882 70.1694 458.267 69.7682 459.785 69.7682C461.103 69.7682 462.276 70.0777 463.303 70.6966C464.331 71.2925 465.112 72.0375 465.648 72.9314H465.782L465.648 70.4903V63.2357H468.496V87.8532H465.782V85.2745H465.648C465.112 86.1455 464.331 86.8905 463.303 87.5094C462.276 88.1053 461.103 88.4033 459.785 88.4033ZM460.12 85.7559C461.125 85.7559 462.052 85.4808 462.901 84.9307C463.772 84.3806 464.465 83.6013 464.978 82.5927C465.514 81.5842 465.782 80.4152 465.782 79.0858C465.782 77.7563 465.514 76.5873 464.978 75.5788C464.465 74.5703 463.772 73.7909 462.901 73.2408C462.052 72.6907 461.125 72.4157 460.12 72.4157C459.138 72.4157 458.211 72.6907 457.34 73.2408C456.469 73.7909 455.765 74.5817 455.229 75.6132C454.715 76.6217 454.458 77.7793 454.458 79.0858C454.458 80.3923 454.715 81.5613 455.229 82.5927C455.765 83.6013 456.469 84.3806 457.34 84.9307C458.211 85.4808 459.138 85.7559 460.12 85.7559ZM480.144 88.4033C478.514 88.4033 477.051 88.0022 475.755 87.1999C474.46 86.3977 473.444 85.2975 472.706 83.8993C471.992 82.4781 471.634 80.8851 471.634 79.1202C471.634 77.424 471.969 75.8653 472.639 74.4442C473.332 73.0231 474.303 71.8885 475.554 71.0404C476.805 70.1923 478.257 69.7682 479.91 69.7682C481.585 69.7682 483.037 70.1579 484.265 70.9372C485.493 71.6936 486.432 72.748 487.079 74.1004C487.749 75.4527 488.084 76.9999 488.084 78.742C488.084 79.0858 488.051 79.3837 487.984 79.6359H474.482C474.549 80.9653 474.862 82.0885 475.42 83.0053C475.979 83.9222 476.682 84.6098 477.531 85.0682C478.402 85.5267 479.307 85.7559 480.245 85.7559C482.434 85.7559 484.12 84.7015 485.304 82.5927L487.716 83.7961C486.979 85.2172 485.974 86.3404 484.701 87.1655C483.45 87.9907 481.931 88.4033 480.144 88.4033ZM485.069 77.2291C485.024 76.4957 484.823 75.7622 484.466 75.0287C484.109 74.2952 483.539 73.6763 482.757 73.1721C481.998 72.6678 481.038 72.4157 479.876 72.4157C478.536 72.4157 477.397 72.8626 476.459 73.7566C475.543 74.6276 474.94 75.7851 474.65 77.2291H485.069ZM491.418 70.3184H494.131V72.897H494.265C494.734 72.026 495.483 71.2925 496.51 70.6966C497.538 70.0777 498.632 69.7682 499.793 69.7682C501.848 69.7682 503.412 70.3871 504.484 71.6249C505.578 72.8397 506.126 74.5015 506.126 76.6103V87.8532H503.278V77.0572C503.278 75.4298 502.898 74.2494 502.139 73.5159C501.379 72.7824 500.341 72.4157 499.023 72.4157C498.107 72.4157 497.281 72.6793 496.544 73.2064C495.829 73.7336 495.271 74.4327 494.868 75.3037C494.466 76.1518 494.265 77.0458 494.265 77.9855V87.8532H491.418V70.3184ZM515.914 88.1282C515.221 88.1282 514.574 88.0136 513.97 87.7844C513.39 87.5552 512.898 87.2458 512.496 86.8561C512.05 86.4206 511.715 85.9163 511.491 85.3433C511.268 84.7703 511.156 84.0712 511.156 83.246V72.9658H508.174V70.3184H511.156V65.3673H514.004V70.3184H518.158V72.9658H514.004V82.524C514.004 83.4867 514.183 84.1972 514.54 84.6557C514.964 85.1599 515.579 85.4121 516.383 85.4121C517.03 85.4121 517.656 85.2172 518.259 84.8276V87.6813C517.924 87.8417 517.578 87.9563 517.22 88.0251C516.885 88.0939 516.45 88.1282 515.914 88.1282ZM540.575 88.4033C538.252 88.4033 536.141 87.8417 534.243 86.7186C532.344 85.5954 530.848 84.0597 529.754 82.1114C528.681 80.1402 528.145 77.9512 528.145 75.5444C528.145 73.1377 528.681 70.9602 529.754 69.0118C530.848 67.0406 532.344 65.4934 534.243 64.3703C536.141 63.2471 538.252 62.6855 540.575 62.6855C542.362 62.6855 543.992 63.0408 545.467 63.7514C546.963 64.439 548.258 65.4246 549.353 66.7082L547.309 68.7368C546.393 67.6136 545.388 66.7885 544.294 66.2613C543.222 65.7341 541.982 65.4705 540.575 65.4705C538.833 65.4705 537.236 65.8945 535.784 66.7426C534.332 67.5678 533.171 68.7482 532.3 70.284C531.451 71.7968 531.027 73.5503 531.027 75.5444C531.027 77.5386 531.451 79.3035 532.3 80.8393C533.171 82.3521 534.332 83.5325 535.784 84.3806C537.236 85.2058 538.833 85.6184 540.575 85.6184C543.479 85.6184 545.947 84.3921 547.979 81.9395L550.056 84.0024C548.94 85.3548 547.566 86.4321 545.936 87.2343C544.305 88.0136 542.518 88.4033 540.575 88.4033ZM553.254 63.2357H556.102V87.8532H553.254V63.2357ZM566.519 88.4033C564.464 88.4033 562.89 87.7844 561.795 86.5467C560.723 85.3089 560.187 83.5784 560.187 81.355V70.3184H563.035V80.908C563.035 82.5813 563.403 83.8076 564.141 84.5869C564.878 85.3662 565.871 85.7559 567.122 85.7559C568.083 85.7559 568.931 85.4923 569.669 84.9651C570.428 84.4379 571.009 83.7503 571.411 82.9022C571.835 82.0541 572.047 81.1602 572.047 80.2204V70.3184H574.895V87.8532H572.181V85.3089H572.047C571.578 86.1799 570.83 86.9134 569.803 87.5094C568.775 88.1053 567.681 88.4033 566.519 88.4033ZM587.779 88.4033C586.483 88.4033 585.311 88.1053 584.261 87.5094C583.234 86.8905 582.463 86.1455 581.949 85.2745H581.815V87.8532H579.102V63.2357H581.949V70.4903L581.815 72.9314H581.949C582.463 72.0375 583.234 71.2925 584.261 70.6966C585.311 70.0777 586.483 69.7682 587.779 69.7682C589.298 69.7682 590.682 70.1694 591.933 70.9716C593.184 71.7739 594.167 72.8855 594.882 74.3067C595.596 75.7278 595.954 77.3208 595.954 79.0858C595.954 80.8736 595.596 82.4781 594.882 83.8993C594.167 85.2975 593.184 86.3977 591.933 87.1999C590.682 88.0022 589.298 88.4033 587.779 88.4033ZM587.444 85.7559C588.427 85.7559 589.354 85.4808 590.225 84.9307C591.096 84.3806 591.788 83.6013 592.302 82.5927C592.838 81.5613 593.106 80.3923 593.106 79.0858C593.106 77.7793 592.838 76.6217 592.302 75.6132C591.788 74.5817 591.096 73.7909 590.225 73.2408C589.354 72.6907 588.427 72.4157 587.444 72.4157C586.461 72.4157 585.534 72.6907 584.663 73.2408C583.792 73.7909 583.1 74.5703 582.586 75.5788C582.072 76.5873 581.815 77.7563 581.815 79.0858C581.815 80.4152 582.072 81.5842 582.586 82.5927C583.1 83.6013 583.792 84.3806 584.663 84.9307C585.534 85.4808 586.461 85.7559 587.444 85.7559ZM605.056 88.4033C603.225 88.4033 601.695 87.9678 600.466 87.0968C599.238 86.2028 598.367 85.0682 597.853 83.693L600.399 82.524C600.824 83.5784 601.449 84.3921 602.275 84.9651C603.124 85.5381 604.051 85.8246 605.056 85.8246C606.128 85.8246 607.044 85.6069 607.803 85.1714C608.563 84.713 608.942 84.0712 608.942 83.246C608.942 82.5125 608.641 81.928 608.038 81.4925C607.435 81.0341 606.486 80.6444 605.19 80.3235L603.113 79.7734C601.75 79.4296 600.634 78.8451 599.763 78.0199C598.891 77.1948 598.456 76.1289 598.456 74.8224C598.456 73.8139 598.746 72.9314 599.327 72.175C599.93 71.3957 600.723 70.7997 601.706 70.3871C602.689 69.9745 603.749 69.7682 604.889 69.7682C606.385 69.7682 607.714 70.1006 608.875 70.7653C610.059 71.43 610.897 72.3584 611.388 73.5503L608.909 74.7193C608.15 73.1606 606.798 72.3813 604.855 72.3813C603.917 72.3813 603.091 72.6105 602.376 73.0689C601.683 73.5044 601.337 74.066 601.337 74.7536C601.337 75.3954 601.583 75.9226 602.074 76.3352C602.566 76.7249 603.303 77.0458 604.286 77.2979L606.765 77.9512C608.44 78.3867 609.702 79.0399 610.551 79.9109C611.399 80.759 611.824 81.802 611.824 83.0397C611.824 84.117 611.522 85.0682 610.919 85.8934C610.316 86.6957 609.501 87.3145 608.473 87.75C607.446 88.1855 606.307 88.4033 605.056 88.4033Z" fill="black"/>
<path d="M126.352 101.214H131.049C132.65 101.214 134.042 101.564 135.223 102.265C136.413 102.958 137.327 103.923 137.967 105.163C138.606 106.403 138.925 107.826 138.925 109.433C138.925 111.049 138.606 112.476 137.967 113.716C137.327 114.955 136.413 115.925 135.223 116.626C134.042 117.319 132.65 117.665 131.049 117.665H126.352V101.214ZM131.049 115.806C132.893 115.806 134.354 115.246 135.429 114.126C136.514 113.006 137.056 111.442 137.056 109.433C137.056 107.433 136.514 105.872 135.429 104.753C134.354 103.633 132.893 103.073 131.049 103.073H128.208V115.806H131.049ZM142.056 117.806C141.668 117.806 141.34 117.665 141.073 117.383C140.806 117.092 140.672 116.742 140.672 116.331C140.672 115.93 140.806 115.588 141.073 115.306C141.34 115.023 141.668 114.882 142.056 114.882C142.452 114.882 142.784 115.023 143.051 115.306C143.318 115.588 143.452 115.93 143.452 116.331C143.452 116.742 143.318 117.092 143.051 117.383C142.784 117.665 142.452 117.806 142.056 117.806ZM154.418 110.061L149.151 101.214H151.299L155.28 108.112H155.365L159.285 101.214H161.433L156.263 110.061V117.665H154.418V110.061ZM162.61 117.806C162.221 117.806 161.893 117.665 161.626 117.383C161.359 117.092 161.225 116.742 161.225 116.331C161.225 115.93 161.359 115.588 161.626 115.306C161.893 115.023 162.221 114.882 162.61 114.882C163.006 114.882 163.338 115.023 163.604 115.306C163.871 115.588 164.005 115.93 164.005 116.331C164.005 116.742 163.871 117.092 163.604 117.383C163.338 117.665 163.006 117.806 162.61 117.806ZM171.982 101.214H177.225C178.099 101.214 178.904 101.423 179.64 101.842C180.385 102.252 180.975 102.829 181.412 103.573C181.857 104.317 182.08 105.154 182.08 106.086C182.08 107.018 181.857 107.856 181.412 108.599C180.975 109.343 180.385 109.924 179.64 110.343C178.904 110.754 178.099 110.959 177.225 110.959H173.839V117.665H171.982V101.214ZM177.273 109.1C177.848 109.1 178.358 108.954 178.803 108.664C179.248 108.364 179.592 107.988 179.835 107.535C180.086 107.073 180.211 106.591 180.211 106.086C180.211 105.582 180.086 105.099 179.835 104.637C179.592 104.176 179.248 103.799 178.803 103.509C178.358 103.218 177.848 103.073 177.273 103.073H173.839V109.1H177.273ZM187.254 118.037C186.445 118.037 185.722 117.87 185.082 117.537C184.442 117.195 183.95 116.729 183.601 116.139C183.253 115.549 183.079 114.878 183.079 114.126C183.079 112.886 183.521 111.92 184.402 111.228C185.293 110.527 186.409 110.177 187.752 110.177C188.423 110.177 189.043 110.254 189.609 110.407C190.183 110.561 190.625 110.736 190.932 110.933V110.215C190.932 109.343 190.641 108.646 190.058 108.125C189.475 107.595 188.743 107.33 187.861 107.33C187.254 107.33 186.684 107.471 186.15 107.753C185.624 108.035 185.207 108.428 184.9 108.933L183.516 107.83C183.953 107.129 184.552 106.578 185.313 106.176C186.081 105.774 186.931 105.573 187.861 105.573C189.374 105.573 190.556 105.992 191.405 106.83C192.263 107.668 192.692 108.805 192.692 110.241V117.665H190.932V115.985H190.847C190.524 116.549 190.042 117.032 189.402 117.434C188.772 117.836 188.056 118.037 187.254 118.037ZM187.424 116.306C188.047 116.306 188.626 116.139 189.16 115.806C189.702 115.464 190.131 115.011 190.446 114.446C190.77 113.882 190.932 113.263 190.932 112.587C190.584 112.339 190.155 112.138 189.646 111.985C189.136 111.831 188.602 111.754 188.044 111.754C187.024 111.754 186.255 111.976 185.737 112.421C185.228 112.865 184.973 113.442 184.973 114.152C184.973 114.793 185.203 115.314 185.665 115.716C186.134 116.109 186.721 116.306 187.424 116.306ZM199.302 117.844C198.857 117.844 198.44 117.768 198.052 117.614C197.672 117.46 197.348 117.255 197.081 116.998C196.507 116.417 196.219 115.613 196.219 114.588V107.715H194.277V105.945H196.219V102.637H198.064V105.945H200.783V107.715H198.064V114.1C198.064 114.75 198.182 115.224 198.416 115.524C198.691 115.866 199.088 116.037 199.605 116.037C200.059 116.037 200.467 115.904 200.831 115.639V117.55C200.613 117.661 200.391 117.738 200.164 117.78C199.937 117.823 199.65 117.844 199.302 117.844ZM204.191 103.791C203.836 103.791 203.524 103.654 203.257 103.381C202.998 103.099 202.868 102.765 202.868 102.381C202.868 101.987 202.998 101.658 203.257 101.393C203.524 101.12 203.836 100.983 204.191 100.983C204.572 100.983 204.887 101.12 205.138 101.393C205.397 101.658 205.526 101.987 205.526 102.381C205.526 102.765 205.397 103.099 205.138 103.381C204.887 103.654 204.572 103.791 204.191 103.791ZM203.281 105.945H205.138V117.665H203.281V105.945ZM208.026 101.214H209.871V117.665H208.026V101.214ZM224.897 118.037C223.392 118.037 222.02 117.661 220.783 116.908C219.553 116.156 218.586 115.126 217.882 113.818C217.186 112.51 216.838 111.049 216.838 109.433C216.838 107.826 217.186 106.368 217.882 105.06C218.586 103.753 219.553 102.722 220.783 101.97C222.02 101.218 223.392 100.842 224.897 100.842C226.062 100.842 227.126 101.073 228.089 101.534C229.052 101.996 229.889 102.663 230.602 103.535L229.279 104.894C228.68 104.141 228.029 103.59 227.324 103.24C226.621 102.881 225.811 102.701 224.897 102.701C223.772 102.701 222.737 102.983 221.79 103.547C220.852 104.103 220.103 104.894 219.545 105.919C218.986 106.937 218.707 108.108 218.707 109.433C218.707 110.766 218.986 111.946 219.545 112.972C220.103 113.989 220.852 114.78 221.79 115.344C222.737 115.9 223.772 116.178 224.897 116.178C226.782 116.178 228.388 115.357 229.716 113.716L231.063 115.088C230.351 115.994 229.46 116.712 228.393 117.242C227.324 117.772 226.159 118.037 224.897 118.037ZM238.018 118.037C236.933 118.037 235.954 117.763 235.081 117.216C234.215 116.661 233.539 115.908 233.053 114.959C232.568 114.002 232.325 112.951 232.325 111.805C232.325 110.66 232.568 109.612 233.053 108.664C233.539 107.706 234.215 106.954 235.081 106.407C235.954 105.851 236.933 105.573 238.018 105.573C239.102 105.573 240.077 105.851 240.943 106.407C241.816 106.954 242.496 107.706 242.982 108.664C243.475 109.612 243.722 110.66 243.722 111.805C243.722 112.951 243.475 114.002 242.982 114.959C242.496 115.908 241.816 116.661 240.943 117.216C240.077 117.763 239.102 118.037 238.018 118.037ZM238.018 116.267C238.698 116.267 239.328 116.088 239.911 115.729C240.502 115.361 240.975 114.844 241.331 114.177C241.687 113.502 241.865 112.711 241.865 111.805C241.865 110.899 241.687 110.112 241.331 109.446C240.975 108.77 240.502 108.253 239.911 107.894C239.328 107.527 238.698 107.343 238.018 107.343C237.338 107.343 236.699 107.527 236.1 107.894C235.51 108.253 235.036 108.77 234.68 109.446C234.324 110.112 234.146 110.899 234.146 111.805C234.146 112.711 234.324 113.502 234.68 114.177C235.036 114.844 235.51 115.361 236.1 115.729C236.699 116.088 237.338 116.267 238.018 116.267ZM245.762 101.214H247.606V117.665H245.762V101.214ZM250.351 101.214H252.196V117.665H250.351V101.214ZM259.771 118.037C258.712 118.037 257.761 117.768 256.919 117.229C256.078 116.69 255.422 115.951 254.953 115.011C254.484 114.07 254.249 113.01 254.249 111.831C254.249 110.711 254.467 109.672 254.904 108.715C255.349 107.757 255.981 106.997 256.798 106.432C257.615 105.86 258.554 105.573 259.613 105.573C260.705 105.573 261.649 105.83 262.442 106.343C263.243 106.856 263.853 107.565 264.274 108.471C264.703 109.377 264.917 110.412 264.917 111.574C264.917 111.762 264.905 111.963 264.881 112.177H256.094C256.134 113.066 256.337 113.818 256.701 114.434C257.065 115.041 257.526 115.498 258.084 115.806C258.642 116.113 259.225 116.267 259.832 116.267C261.28 116.267 262.377 115.562 263.121 114.152L264.686 114.959C264.217 115.891 263.57 116.639 262.745 117.203C261.92 117.759 260.928 118.037 259.771 118.037ZM262.964 110.561C262.939 110.074 262.809 109.587 262.575 109.1C262.34 108.604 261.976 108.189 261.483 107.856C260.989 107.514 260.366 107.343 259.613 107.343C258.747 107.343 258.007 107.638 257.392 108.228C256.786 108.817 256.389 109.595 256.203 110.561H262.964ZM272.052 122.999C270.75 122.999 269.673 122.674 268.824 122.025C267.974 121.383 267.408 120.61 267.125 119.704L268.812 118.947C269.046 119.622 269.451 120.17 270.025 120.588C270.6 121.016 271.275 121.23 272.052 121.23C273.201 121.23 274.091 120.875 274.722 120.165C275.353 119.464 275.669 118.468 275.669 117.178V115.87H275.584C275.22 116.468 274.706 116.955 274.043 117.332C273.388 117.708 272.639 117.896 271.797 117.896C270.843 117.896 269.969 117.635 269.176 117.114C268.383 116.592 267.756 115.866 267.294 114.934C266.834 113.993 266.603 112.929 266.603 111.741C266.603 110.561 266.834 109.501 267.294 108.561C267.756 107.612 268.383 106.877 269.176 106.355C269.969 105.834 270.843 105.573 271.797 105.573C272.639 105.573 273.388 105.761 274.043 106.137C274.706 106.514 275.22 107.009 275.584 107.625H275.669V105.945H277.429V117.203C277.429 119.093 276.935 120.529 275.948 121.512C274.961 122.503 273.662 122.999 272.052 122.999ZM272.052 116.126C272.723 116.126 273.331 115.951 273.873 115.6C274.415 115.25 274.848 114.746 275.171 114.087C275.503 113.421 275.669 112.638 275.669 111.741C275.669 110.818 275.503 110.027 275.171 109.369C274.848 108.711 274.415 108.21 273.873 107.869C273.331 107.518 272.723 107.343 272.052 107.343C271.389 107.343 270.782 107.522 270.232 107.881C269.681 108.232 269.241 108.736 268.909 109.394C268.585 110.053 268.423 110.835 268.423 111.741C268.423 112.638 268.585 113.421 268.909 114.087C269.241 114.754 269.681 115.263 270.232 115.613C270.782 115.955 271.389 116.126 272.052 116.126ZM285.001 118.037C283.941 118.037 282.99 117.768 282.148 117.229C281.307 116.69 280.652 115.951 280.182 115.011C279.713 114.07 279.478 113.01 279.478 111.831C279.478 110.711 279.697 109.672 280.134 108.715C280.579 107.757 281.21 106.997 282.027 106.432C282.844 105.86 283.783 105.573 284.843 105.573C285.936 105.573 286.878 105.83 287.671 106.343C288.472 106.856 289.083 107.565 289.503 108.471C289.932 109.377 290.147 110.412 290.147 111.574C290.147 111.762 290.135 111.963 290.11 112.177H281.323C281.364 113.066 281.566 113.818 281.93 114.434C282.294 115.041 282.755 115.498 283.313 115.806C283.872 116.113 284.455 116.267 285.062 116.267C286.51 116.267 287.606 115.562 288.351 114.152L289.917 114.959C289.447 115.891 288.8 116.639 287.974 117.203C287.149 117.759 286.157 118.037 285.001 118.037ZM288.193 110.561C288.168 110.074 288.039 109.587 287.804 109.1C287.57 108.604 287.206 108.189 286.712 107.856C286.219 107.514 285.595 107.343 284.843 107.343C283.978 107.343 283.237 107.638 282.622 108.228C282.015 108.817 281.619 109.595 281.433 110.561H288.193ZM302.462 118.037C301.378 118.037 300.399 117.763 299.525 117.216C298.659 116.661 297.983 115.908 297.497 114.959C297.012 114.002 296.769 112.951 296.769 111.805C296.769 110.66 297.012 109.612 297.497 108.664C297.983 107.706 298.659 106.954 299.525 106.407C300.399 105.851 301.378 105.573 302.462 105.573C303.546 105.573 304.521 105.851 305.387 106.407C306.26 106.954 306.94 107.706 307.425 108.664C307.919 109.612 308.166 110.66 308.166 111.805C308.166 112.951 307.919 114.002 307.425 114.959C306.94 115.908 306.26 116.661 305.387 117.216C304.521 117.763 303.546 118.037 302.462 118.037ZM302.462 116.267C303.141 116.267 303.772 116.088 304.355 115.729C304.945 115.361 305.419 114.844 305.775 114.177C306.131 113.502 306.309 112.711 306.309 111.805C306.309 110.899 306.131 110.112 305.775 109.446C305.419 108.77 304.945 108.253 304.355 107.894C303.772 107.527 303.141 107.343 302.462 107.343C301.782 107.343 301.142 107.527 300.544 107.894C299.953 108.253 299.48 108.77 299.124 109.446C298.768 110.112 298.59 110.899 298.59 111.805C298.59 112.711 298.768 113.502 299.124 114.177C299.48 114.844 299.953 115.361 300.544 115.729C301.142 116.088 301.782 116.267 302.462 116.267ZM311.274 107.715H309.223V105.945H311.274V104.689C311.274 103.945 311.432 103.299 311.748 102.752C312.064 102.197 312.489 101.774 313.023 101.483C313.565 101.184 314.163 101.034 314.819 101.034C315.442 101.034 315.984 101.124 316.445 101.303V103.214C316.186 103.103 315.94 103.013 315.705 102.945C315.478 102.876 315.203 102.842 314.879 102.842C314.402 102.842 313.99 103.022 313.641 103.381C313.294 103.74 313.119 104.244 313.119 104.894V105.945H315.972V107.715H313.119V117.665H311.274V107.715ZM323.642 101.214H332.647V103.073H325.498V108.523H331.955V110.356H325.498V115.806H332.647V117.665H323.642V101.214ZM335.044 105.945H336.804V107.663H336.889C337.196 107.082 337.682 106.591 338.345 106.189C339.017 105.778 339.728 105.573 340.481 105.573C341.816 105.573 342.836 105.984 343.54 106.804C344.244 107.625 344.595 108.74 344.595 110.151V117.665H342.738V110.446C342.738 109.36 342.492 108.574 341.998 108.087C341.505 107.591 340.833 107.343 339.984 107.343C339.384 107.343 338.851 107.522 338.382 107.881C337.913 108.232 337.544 108.693 337.277 109.266C337.018 109.839 336.889 110.442 336.889 111.074V117.665H335.044V105.945ZM352.003 122.999C350.701 122.999 349.624 122.674 348.775 122.025C347.926 121.383 347.359 120.61 347.076 119.704L348.763 118.947C348.998 119.622 349.402 120.17 349.977 120.588C350.551 121.016 351.227 121.23 352.003 121.23C353.153 121.23 354.042 120.875 354.674 120.165C355.304 119.464 355.62 118.468 355.62 117.178V115.87H355.535C355.171 116.468 354.657 116.955 353.994 117.332C353.338 117.708 352.59 117.896 351.749 117.896C350.794 117.896 349.92 117.635 349.127 117.114C348.334 116.592 347.707 115.866 347.246 114.934C346.784 113.993 346.554 112.929 346.554 111.741C346.554 110.561 346.784 109.501 347.246 108.561C347.707 107.612 348.334 106.877 349.127 106.355C349.92 105.834 350.794 105.573 351.749 105.573C352.59 105.573 353.338 105.761 353.994 106.137C354.657 106.514 355.171 107.009 355.535 107.625H355.62V105.945H357.38V117.203C357.38 119.093 356.887 120.529 355.899 121.512C354.912 122.503 353.614 122.999 352.003 122.999ZM352.003 116.126C352.675 116.126 353.282 115.951 353.824 115.6C354.366 115.25 354.799 114.746 355.123 114.087C355.454 113.421 355.62 112.638 355.62 111.741C355.62 110.818 355.454 110.027 355.123 109.369C354.799 108.711 354.366 108.21 353.824 107.869C353.282 107.518 352.675 107.343 352.003 107.343C351.34 107.343 350.733 107.522 350.183 107.881C349.633 108.232 349.192 108.736 348.86 109.394C348.536 110.053 348.374 110.835 348.374 111.741C348.374 112.638 348.536 113.421 348.86 114.087C349.192 114.754 349.633 115.263 350.183 115.613C350.733 115.955 351.34 116.126 352.003 116.126ZM361.201 103.791C360.845 103.791 360.534 103.654 360.267 103.381C360.008 103.099 359.878 102.765 359.878 102.381C359.878 101.987 360.008 101.658 360.267 101.393C360.534 101.12 360.845 100.983 361.201 100.983C361.581 100.983 361.897 101.12 362.148 101.393C362.407 101.658 362.536 101.987 362.536 102.381C362.536 102.765 362.407 103.099 362.148 103.381C361.897 103.654 361.581 103.791 361.201 103.791ZM360.291 105.945H362.148V117.665H360.291V105.945ZM365.037 105.945H366.796V107.663H366.881C367.188 107.082 367.674 106.591 368.338 106.189C369.009 105.778 369.721 105.573 370.474 105.573C371.809 105.573 372.828 105.984 373.532 106.804C374.236 107.625 374.588 108.74 374.588 110.151V117.665H372.731V110.446C372.731 109.36 372.484 108.574 371.991 108.087C371.498 107.591 370.826 107.343 369.976 107.343C369.377 107.343 368.843 107.522 368.374 107.881C367.905 108.232 367.537 108.693 367.27 109.266C367.01 109.839 366.881 110.442 366.881 111.074V117.665H365.037V105.945ZM382.178 118.037C381.118 118.037 380.167 117.768 379.326 117.229C378.484 116.69 377.828 115.951 377.359 115.011C376.89 114.07 376.656 113.01 376.656 111.831C376.656 110.711 376.874 109.672 377.311 108.715C377.756 107.757 378.387 106.997 379.204 106.432C380.022 105.86 380.96 105.573 382.02 105.573C383.112 105.573 384.055 105.83 384.848 106.343C385.649 106.856 386.26 107.565 386.681 108.471C387.109 109.377 387.324 110.412 387.324 111.574C387.324 111.762 387.312 111.963 387.287 112.177H378.5C378.541 113.066 378.743 113.818 379.107 114.434C379.471 115.041 379.932 115.498 380.491 115.806C381.049 116.113 381.631 116.267 382.238 116.267C383.687 116.267 384.783 115.562 385.527 114.152L387.093 114.959C386.624 115.891 385.976 116.639 385.151 117.203C384.326 117.759 383.335 118.037 382.178 118.037ZM385.369 110.561C385.346 110.074 385.216 109.587 384.982 109.1C384.746 108.604 384.382 108.189 383.889 107.856C383.396 107.514 382.773 107.343 382.02 107.343C381.154 107.343 380.414 107.638 379.799 108.228C379.192 108.817 378.795 109.595 378.609 110.561H385.369ZM394.531 118.037C393.471 118.037 392.521 117.768 391.679 117.229C390.838 116.69 390.182 115.951 389.713 115.011C389.244 114.07 389.009 113.01 389.009 111.831C389.009 110.711 389.228 109.672 389.665 108.715C390.11 107.757 390.74 106.997 391.558 106.432C392.375 105.86 393.313 105.573 394.374 105.573C395.466 105.573 396.408 105.83 397.201 106.343C398.002 106.856 398.614 107.565 399.034 108.471C399.463 109.377 399.678 110.412 399.678 111.574C399.678 111.762 399.666 111.963 399.641 112.177H390.854C390.895 113.066 391.096 113.818 391.46 114.434C391.825 115.041 392.286 115.498 392.844 115.806C393.403 116.113 393.985 116.267 394.592 116.267C396.041 116.267 397.137 115.562 397.881 114.152L399.447 114.959C398.978 115.891 398.33 116.639 397.505 117.203C396.679 117.759 395.688 118.037 394.531 118.037ZM397.723 110.561C397.699 110.074 397.57 109.587 397.335 109.1C397.1 108.604 396.736 108.189 396.242 107.856C395.749 107.514 395.126 107.343 394.374 107.343C393.508 107.343 392.768 107.638 392.153 108.228C391.546 108.817 391.149 109.595 390.963 110.561H397.723ZM401.837 105.945H403.597V107.83H403.682C403.9 107.189 404.32 106.659 404.944 106.24C405.567 105.813 406.218 105.599 406.898 105.599C407.407 105.599 407.844 105.676 408.208 105.83V107.946C407.747 107.698 407.225 107.574 406.643 107.574C406.109 107.574 405.615 107.736 405.162 108.061C404.717 108.386 404.357 108.822 404.082 109.369C403.815 109.907 403.682 110.489 403.682 111.113V117.665H401.837V105.945ZM411.073 103.791C410.717 103.791 410.405 103.654 410.138 103.381C409.88 103.099 409.75 102.765 409.75 102.381C409.75 101.987 409.88 101.658 410.138 101.393C410.405 101.12 410.717 100.983 411.073 100.983C411.453 100.983 411.769 101.12 412.019 101.393C412.279 101.658 412.408 101.987 412.408 102.381C412.408 102.765 412.279 103.099 412.019 103.381C411.769 103.654 411.453 103.791 411.073 103.791ZM410.163 105.945H412.019V117.665H410.163V105.945ZM414.908 105.945H416.668V107.663H416.753C417.061 107.082 417.546 106.591 418.209 106.189C418.881 105.778 419.593 105.573 420.345 105.573C421.68 105.573 422.7 105.984 423.404 106.804C424.108 107.625 424.46 108.74 424.46 110.151V117.665H422.603V110.446C422.603 109.36 422.356 108.574 421.863 108.087C421.369 107.591 420.698 107.343 419.848 107.343C419.249 107.343 418.715 107.522 418.246 107.881C417.777 108.232 417.408 108.693 417.141 109.266C416.883 109.839 416.753 110.442 416.753 111.074V117.665H414.908V105.945ZM431.867 122.999C430.565 122.999 429.489 122.674 428.639 122.025C427.79 121.383 427.223 120.61 426.94 119.704L428.627 118.947C428.862 119.622 429.266 120.17 429.841 120.588C430.416 121.016 431.091 121.23 431.867 121.23C433.017 121.23 433.907 120.875 434.538 120.165C435.169 119.464 435.484 118.468 435.484 117.178V115.87H435.399C435.035 116.468 434.522 116.955 433.858 117.332C433.203 117.708 432.454 117.896 431.613 117.896C430.658 117.896 429.784 117.635 428.991 117.114C428.199 116.592 427.572 115.866 427.11 114.934C426.649 113.993 426.418 112.929 426.418 111.741C426.418 110.561 426.649 109.501 427.11 108.561C427.572 107.612 428.199 106.877 428.991 106.355C429.784 105.834 430.658 105.573 431.613 105.573C432.454 105.573 433.203 105.761 433.858 106.137C434.522 106.514 435.035 107.009 435.399 107.625H435.484V105.945H437.244V117.203C437.244 119.093 436.751 120.529 435.764 121.512C434.776 122.503 433.478 122.999 431.867 122.999ZM431.867 116.126C432.539 116.126 433.146 115.951 433.689 115.6C434.231 115.25 434.663 114.746 434.987 114.087C435.319 113.421 435.484 112.638 435.484 111.741C435.484 110.818 435.319 110.027 434.987 109.369C434.663 108.711 434.231 108.21 433.689 107.869C433.146 107.518 432.539 107.343 431.867 107.343C431.204 107.343 430.597 107.522 430.047 107.881C429.497 108.232 429.056 108.736 428.724 109.394C428.4 110.053 428.239 110.835 428.239 111.741C428.239 112.638 428.4 113.421 428.724 114.087C429.056 114.754 429.497 115.263 430.047 115.613C430.597 115.955 431.204 116.126 431.867 116.126ZM439.961 109.741H446.855V111.343H439.961V109.741ZM449.941 101.214H455.184C456.058 101.214 456.863 101.423 457.599 101.842C458.344 102.252 458.934 102.829 459.371 103.573C459.817 104.317 460.039 105.154 460.039 106.086C460.039 107.018 459.817 107.856 459.371 108.599C458.934 109.343 458.344 109.924 457.599 110.343C456.863 110.754 456.058 110.959 455.184 110.959H451.798V117.665H449.941V101.214ZM455.233 109.1C455.807 109.1 456.317 108.954 456.762 108.664C457.207 108.364 457.551 107.988 457.794 107.535C458.045 107.073 458.17 106.591 458.17 106.086C458.17 105.582 458.045 105.099 457.794 104.637C457.551 104.176 457.207 103.799 456.762 103.509C456.317 103.218 455.807 103.073 455.233 103.073H451.798V109.1H455.233ZM465.905 118.037C464.578 118.037 463.562 117.622 462.858 116.793C462.154 115.964 461.802 114.805 461.802 113.318V105.945H463.647V113.023C463.647 114.143 463.885 114.964 464.363 115.485C464.841 116.007 465.488 116.267 466.305 116.267C466.928 116.267 467.482 116.092 467.968 115.742C468.453 115.382 468.83 114.921 469.096 114.357C469.364 113.793 469.497 113.194 469.497 112.562V105.945H471.342V117.665H469.582V115.96H469.497C469.189 116.541 468.704 117.032 468.041 117.434C467.377 117.836 466.665 118.037 465.905 118.037ZM474.088 105.945H475.848V107.663H475.933C476.241 107.082 476.726 106.591 477.389 106.189C478.062 105.778 478.773 105.573 479.526 105.573C480.861 105.573 481.88 105.984 482.585 106.804C483.288 107.625 483.64 108.74 483.64 110.151V117.665H481.784V110.446C481.784 109.36 481.536 108.574 481.043 108.087C480.549 107.591 479.878 107.343 479.028 107.343C478.43 107.343 477.896 107.522 477.426 107.881C476.957 108.232 476.589 108.693 476.322 109.266C476.063 109.839 475.933 110.442 475.933 111.074V117.665H474.088V105.945ZM491.23 118.037C490.17 118.037 489.219 117.768 488.378 117.229C487.536 116.69 486.881 115.951 486.411 115.011C485.942 114.07 485.707 113.01 485.707 111.831C485.707 110.711 485.926 109.672 486.363 108.715C486.808 107.757 487.439 106.997 488.256 106.432C489.073 105.86 490.012 105.573 491.072 105.573C492.164 105.573 493.107 105.83 493.9 106.343C494.701 106.856 495.312 107.565 495.733 108.471C496.162 109.377 496.376 110.412 496.376 111.574C496.376 111.762 496.363 111.963 496.34 112.177H487.552C487.593 113.066 487.795 113.818 488.159 114.434C488.523 115.041 488.985 115.498 489.543 115.806C490.101 116.113 490.684 116.267 491.29 116.267C492.739 116.267 493.835 115.562 494.58 114.152L496.145 114.959C495.676 115.891 495.029 116.639 494.204 117.203C493.378 117.759 492.387 118.037 491.23 118.037ZM494.422 110.561C494.398 110.074 494.268 109.587 494.033 109.1C493.799 108.604 493.435 108.189 492.941 107.856C492.447 107.514 491.825 107.343 491.072 107.343C490.206 107.343 489.466 107.638 488.851 108.228C488.244 108.817 487.848 109.595 487.662 110.561H494.422Z" fill="black"/>
</g>
<defs>
<clipPath id="clip0_33_182496">
<rect width="1080" height="1080" fill="white"/>
</clipPath>
</defs>
</svg>
